<svg width="17" height="22" viewBox="0 0 17 22" fill="none" xmlns="http://www.w3.org/2000/svg">
<rect width="17" height="17" rx="3" fill="#7B3F00"/>
<path d="M8.5 22L5.46891 16.75H11.5311L8.5 22Z" fill="#7B3F00"/>
<path d="M7.59 4V3.628L8.376 2.893C8.432 2.841 8.473 2.795 8.499 2.755C8.527 2.715 8.545 2.679 8.553 2.647C8.563 2.613 8.568 2.582 8.568 2.554C8.568 2.486 8.545 2.433 8.499 2.395C8.455 2.357 8.388 2.338 8.298 2.338C8.222 2.338 8.151 2.355 8.085 2.389C8.019 2.423 7.965 2.474 7.923 2.542L7.482 2.296C7.56 2.164 7.673 2.058 7.821 1.978C7.969 1.898 8.146 1.858 8.352 1.858C8.514 1.858 8.656 1.884 8.778 1.936C8.9 1.988 8.995 2.062 9.063 2.158C9.133 2.254 9.168 2.367 9.168 2.497C9.168 2.565 9.159 2.633 9.141 2.701C9.123 2.767 9.088 2.838 9.036 2.914C8.986 2.988 8.911 3.071 8.811 3.163L8.187 3.739L8.088 3.529H9.225V4H7.59Z" fill="white"/>
<rect x="3.5" y="6.5" width="10" height="7" stroke="white"/>
<circle cx="8.5" cy="10.5" r="2" stroke="white"/>
<rect x="7.79004" y="7.6001" width="1.5" height="0.5" fill="white"/>
</svg>
