<svg width="134" height="229" viewBox="0 0 134 229" fill="none" xmlns="http://www.w3.org/2000/svg">
<path d="M49.5999 96.6001C48.6666 97.5334 47.9999 101.133 47.9999 104.6C47.9999 108.067 47.5999 111 47.0666 111C46.5332 111 44.7999 109.667 43.0666 108.067L39.9999 105.267L36.9332 108.067C35.1999 109.667 32.3999 111 30.6666 111C28.9332 111 26.1332 109.667 24.3999 108.067L21.3332 105.267L18.2666 108.067C14.2666 111.8 9.73324 111.8 5.73324 108.067C3.5999 106.067 2.13324 105.667 1.33324 106.467C-0.800097 108.6 1.1999 112.2 5.46657 114.333C9.9999 116.733 13.8666 116.867 17.5999 114.867C19.7332 113.8 21.7332 113.8 25.5999 115.133C29.8666 116.467 31.7332 116.467 35.4666 115.133C39.1999 113.8 41.0666 113.8 44.1332 115C47.5999 116.467 47.9999 117.267 47.9999 123.133C47.9999 126.733 47.5999 129.667 47.0666 129.667C46.5332 129.667 44.7999 128.333 43.0666 126.733L39.9999 123.933L36.9332 126.733C35.1999 128.333 32.3999 129.667 30.6666 129.667C28.9332 129.667 26.1332 128.333 24.3999 126.733L21.3332 123.933L18.2666 126.733C14.2666 130.467 9.73324 130.467 5.73324 126.733C3.5999 124.733 2.13324 124.333 1.33324 125.133C-0.800097 127.267 1.1999 130.867 5.46657 133C9.9999 135.4 13.8666 135.533 17.5999 133.533C19.7332 132.467 21.7332 132.467 25.5999 133.8C29.8666 135.133 31.7332 135.133 35.4666 133.8C39.1999 132.467 41.0666 132.467 44.1332 133.667C47.5999 135.133 47.9999 135.933 47.9999 141.8C47.9999 145.4 47.5999 148.333 47.0666 148.333C46.5332 148.333 44.7999 147 43.0666 145.4L39.9999 142.6L36.9332 145.4C32.9332 149.133 28.3999 149.133 24.3999 145.4L21.3332 142.6L18.2666 145.4C14.2666 149.133 9.73324 149.133 5.73324 145.4C3.5999 143.4 2.13324 143 1.33324 143.8C-0.800097 145.933 1.1999 149.533 5.46657 151.667C9.9999 154.067 13.8666 154.2 17.5999 152.2C19.7332 151.133 21.7332 151.133 25.5999 152.467C29.8666 153.8 31.7332 153.8 35.4666 152.467C39.1999 151.133 41.0666 151.133 44.1332 152.333C47.5999 153.8 47.9999 154.6 47.9999 160.467C47.9999 164.067 47.5999 167 47.0666 167C46.5332 167 44.7999 165.667 43.0666 164.067L39.9999 161.267L36.9332 164.067C35.1999 165.667 32.3999 167 30.6666 167C28.9332 167 26.1332 165.667 24.3999 164.067L21.3332 161.267L18.2666 164.067C14.2666 167.8 9.73324 167.8 5.73324 164.067C3.5999 162.067 2.13324 161.667 1.33324 162.467C-0.800097 164.6 1.1999 168.2 5.46657 170.333C9.9999 172.733 13.8666 172.867 17.5999 170.867C19.7332 169.8 21.7332 169.8 25.5999 171.133C29.8666 172.467 31.7332 172.467 35.4666 171.133C39.1999 169.8 41.0666 169.8 44.1332 171C47.5999 172.467 47.9999 173.267 47.9999 179.133C47.9999 182.733 47.5999 185.667 47.0666 185.667C46.5332 185.667 44.7999 184.333 43.0666 182.733L39.9999 179.933L36.9332 182.733C35.1999 184.333 32.3999 185.667 30.6666 185.667C28.9332 185.667 26.1332 184.333 24.3999 182.733L21.3332 179.933L18.2666 182.733C14.2666 186.467 9.73324 186.467 5.73324 182.733C3.5999 180.733 2.13324 180.333 1.33324 181.133C-0.800097 183.267 1.1999 186.867 5.46657 189C9.9999 191.4 13.8666 191.533 17.5999 189.533C19.7332 188.467 21.7332 188.467 25.5999 189.8C29.8666 191.133 31.7332 191.133 35.4666 189.8C39.1999 188.467 41.0666 188.467 44.1332 189.667C47.5999 191.133 47.9999 191.933 47.9999 197.8C47.9999 201.4 47.5999 204.333 47.0666 204.333C46.5332 204.333 44.7999 203 43.0666 201.4L39.9999 198.6L36.9332 201.4C32.9332 205.133 28.3999 205.133 24.3999 201.4L21.3332 198.6L18.2666 201.4C14.2666 205.133 9.73324 205.133 5.73324 201.4C3.5999 199.4 2.13324 199 1.33324 199.8C-0.800097 201.933 1.1999 205.533 5.46657 207.667C9.9999 210.067 13.8666 210.2 17.5999 208.2C19.7332 207.133 21.7332 207.133 25.5999 208.467C29.8666 209.8 31.7332 209.8 35.4666 208.467C39.1999 207.133 41.0666 207.133 44.1332 208.333C47.5999 209.8 47.9999 210.6 47.9999 216.467C47.9999 220.067 47.5999 223 47.0666 223C46.5332 223 44.7999 221.667 43.0666 220.067L39.9999 217.267L36.9332 220.067C35.1999 221.667 32.3999 223 30.6666 223C28.9332 223 26.1332 221.667 24.3999 220.067L21.3332 217.267L18.2666 220.067C14.2666 223.8 9.73324 223.8 5.73324 220.067C3.46657 217.933 2.26657 217.533 1.1999 218.6C-2.66676 222.467 7.46657 229.533 14.2666 227.667C16.3999 227.133 19.5999 226.867 21.7332 226.867C23.7332 227 27.7332 227 30.6666 227C39.3332 227 42.2666 227.133 64.5332 227.8C78.7999 228.2 86.9332 227.933 89.4666 227C92.2666 225.8 94.2666 225.8 97.8666 227.133C101.733 228.6 103.6 228.6 107.333 227.133C111.067 225.8 112.933 225.8 116.4 227.133C118.933 227.933 122.533 228.333 124.533 227.8C128.667 226.733 133.333 222.467 133.333 219.667C133.333 216.867 130.133 217.133 127.333 220.333C124.133 223.8 118.933 223.667 115.067 220.067L112 217.267L108.933 220.067C104.933 223.8 100.4 223.8 96.3999 220.067C93.4666 217.267 93.3332 217.267 90.6666 219.667C87.4666 222.6 87.1999 222.467 86.1332 215.533C85.1999 210.333 85.3332 209.933 89.1999 208.467C92.3999 207.133 94.1332 207.133 97.8666 208.467C101.733 209.933 103.6 209.933 107.333 208.467C111.067 207.133 112.933 207.133 116.4 208.467C118.933 209.267 122.533 209.667 124.533 209.133C128.667 208.067 133.333 203.8 133.333 201C133.333 198.2 130.133 198.467 127.333 201.667C124.133 205.133 118.933 205 115.067 201.4L112 198.6L108.933 201.4C107.2 203 104.4 204.333 102.667 204.333C100.933 204.333 98.1332 203 96.3999 201.4L93.3332 198.6L90.1332 201.533C85.8666 205.533 83.9999 204.2 83.9999 197.133C83.9999 191.933 84.2666 191.4 88.6666 189.8C92.3999 188.467 94.2666 188.467 97.9999 189.8C101.733 191.267 103.6 191.267 107.333 189.8C111.067 188.467 112.933 188.467 116.4 189.8C118.933 190.6 122.533 191 124.533 190.467C128.667 189.4 133.333 185.133 133.333 182.333C133.333 179.533 130.133 179.8 127.333 183C124.133 186.467 118.933 186.333 115.067 182.733L112 179.933L108.933 182.733C107.2 184.333 104.4 185.667 102.667 185.667C100.933 185.667 98.1332 184.333 96.3999 182.733L93.3332 179.933L90.2666 182.733C87.1999 185.533 82.6666 186.733 82.6666 184.6C82.5332 184.067 80.2666 164.333 77.4666 140.6C73.8666 108.867 71.9999 97.1334 70.5332 96.2001C67.7332 94.4667 51.4666 94.7334 49.5999 96.6001ZM67.9999 102.733C67.9999 104.067 71.0666 131.133 74.6666 162.867C78.3999 194.6 81.3332 221.133 81.3332 221.8C81.3332 222.467 75.0666 223 67.3332 223H53.3332V161.667V100.333H60.6666C66.7999 100.333 67.9999 100.733 67.9999 102.733Z" fill="white"/>
<path d="M74.9545 18.4545V65H63.7273V28.9545H63.4545L53.0455 35.3182V25.5909L64.5227 18.4545H74.9545Z" fill="white"/>
</svg>
