<svg width="134" height="228" viewBox="0 0 134 228" fill="none" xmlns="http://www.w3.org/2000/svg">
<path d="M49.5999 95.6001C48.6666 96.5334 47.9999 100.133 47.9999 103.6C47.9999 107.067 47.5999 110 47.0666 110C46.5332 110 44.7999 108.667 43.0666 107.067L39.9999 104.267L36.9332 107.067C35.1999 108.667 32.3999 110 30.6666 110C28.9332 110 26.1332 108.667 24.3999 107.067L21.3332 104.267L18.2666 107.067C14.2666 110.8 9.73324 110.8 5.73324 107.067C3.5999 105.067 2.13324 104.667 1.33324 105.467C-0.800097 107.6 1.1999 111.2 5.46657 113.333C9.9999 115.733 13.8666 115.867 17.5999 113.867C19.7332 112.8 21.7332 112.8 25.5999 114.133C29.8666 115.467 31.7332 115.467 35.4666 114.133C39.1999 112.8 41.0666 112.8 44.1332 114C47.5999 115.467 47.9999 116.267 47.9999 122.133C47.9999 125.733 47.5999 128.667 47.0666 128.667C46.5332 128.667 44.7999 127.333 43.0666 125.733L39.9999 122.933L36.9332 125.733C35.1999 127.333 32.3999 128.667 30.6666 128.667C28.9332 128.667 26.1332 127.333 24.3999 125.733L21.3332 122.933L18.2666 125.733C14.2666 129.467 9.73324 129.467 5.73324 125.733C3.5999 123.733 2.13324 123.333 1.33324 124.133C-0.800097 126.267 1.1999 129.867 5.46657 132C9.9999 134.4 13.8666 134.533 17.5999 132.533C19.7332 131.467 21.7332 131.467 25.5999 132.8C29.8666 134.133 31.7332 134.133 35.4666 132.8C39.1999 131.467 41.0666 131.467 44.1332 132.667C47.5999 134.133 47.9999 134.933 47.9999 140.8C47.9999 144.4 47.5999 147.333 47.0666 147.333C46.5332 147.333 44.7999 146 43.0666 144.4L39.9999 141.6L36.9332 144.4C32.9332 148.133 28.3999 148.133 24.3999 144.4L21.3332 141.6L18.2666 144.4C14.2666 148.133 9.73324 148.133 5.73324 144.4C3.5999 142.4 2.13324 142 1.33324 142.8C-0.800097 144.933 1.1999 148.533 5.46657 150.667C9.9999 153.067 13.8666 153.2 17.5999 151.2C19.7332 150.133 21.7332 150.133 25.5999 151.467C29.8666 152.8 31.7332 152.8 35.4666 151.467C39.1999 150.133 41.0666 150.133 44.1332 151.333C47.5999 152.8 47.9999 153.6 47.9999 159.467C47.9999 163.067 47.5999 166 47.0666 166C46.5332 166 44.7999 164.667 43.0666 163.067L39.9999 160.267L36.9332 163.067C35.1999 164.667 32.3999 166 30.6666 166C28.9332 166 26.1332 164.667 24.3999 163.067L21.3332 160.267L18.2666 163.067C14.2666 166.8 9.73324 166.8 5.73324 163.067C3.5999 161.067 2.13324 160.667 1.33324 161.467C-0.800097 163.6 1.1999 167.2 5.46657 169.333C9.9999 171.733 13.8666 171.867 17.5999 169.867C19.7332 168.8 21.7332 168.8 25.5999 170.133C29.8666 171.467 31.7332 171.467 35.4666 170.133C39.1999 168.8 41.0666 168.8 44.1332 170C47.5999 171.467 47.9999 172.267 47.9999 178.133C47.9999 181.733 47.5999 184.667 47.0666 184.667C46.5332 184.667 44.7999 183.333 43.0666 181.733L39.9999 178.933L36.9332 181.733C35.1999 183.333 32.3999 184.667 30.6666 184.667C28.9332 184.667 26.1332 183.333 24.3999 181.733L21.3332 178.933L18.2666 181.733C14.2666 185.467 9.73324 185.467 5.73324 181.733C3.5999 179.733 2.13324 179.333 1.33324 180.133C-0.800097 182.267 1.1999 185.867 5.46657 188C9.9999 190.4 13.8666 190.533 17.5999 188.533C19.7332 187.467 21.7332 187.467 25.5999 188.8C29.8666 190.133 31.7332 190.133 35.4666 188.8C39.1999 187.467 41.0666 187.467 44.1332 188.667C47.5999 190.133 47.9999 190.933 47.9999 196.8C47.9999 200.4 47.5999 203.333 47.0666 203.333C46.5332 203.333 44.7999 202 43.0666 200.4L39.9999 197.6L36.9332 200.4C32.9332 204.133 28.3999 204.133 24.3999 200.4L21.3332 197.6L18.2666 200.4C14.2666 204.133 9.73324 204.133 5.73324 200.4C3.5999 198.4 2.13324 198 1.33324 198.8C-0.800097 200.933 1.1999 204.533 5.46657 206.667C9.9999 209.067 13.8666 209.2 17.5999 207.2C19.7332 206.133 21.7332 206.133 25.5999 207.467C29.8666 208.8 31.7332 208.8 35.4666 207.467C39.1999 206.133 41.0666 206.133 44.1332 207.333C47.5999 208.8 47.9999 209.6 47.9999 215.467C47.9999 219.067 47.5999 222 47.0666 222C46.5332 222 44.7999 220.667 43.0666 219.067L39.9999 216.267L36.9332 219.067C35.1999 220.667 32.3999 222 30.6666 222C28.9332 222 26.1332 220.667 24.3999 219.067L21.3332 216.267L18.2666 219.067C14.2666 222.8 9.73324 222.8 5.73324 219.067C3.46657 216.933 2.26657 216.533 1.1999 217.6C-2.66676 221.467 7.46657 228.533 14.2666 226.667C16.3999 226.133 19.5999 225.867 21.7332 225.867C23.7332 226 27.7332 226 30.6666 226C39.3332 226 42.2666 226.133 64.5332 226.8C78.7999 227.2 86.9332 226.933 89.4666 226C92.2666 224.8 94.2666 224.8 97.8666 226.133C101.733 227.6 103.6 227.6 107.333 226.133C111.067 224.8 112.933 224.8 116.4 226.133C118.933 226.933 122.533 227.333 124.533 226.8C128.667 225.733 133.333 221.467 133.333 218.667C133.333 215.867 130.133 216.133 127.333 219.333C124.133 222.8 118.933 222.667 115.067 219.067L112 216.267L108.933 219.067C104.933 222.8 100.4 222.8 96.3999 219.067C93.4666 216.267 93.3332 216.267 90.6666 218.667C87.4666 221.6 87.1999 221.467 86.1332 214.533C85.1999 209.333 85.3332 208.933 89.1999 207.467C92.3999 206.133 94.1332 206.133 97.8666 207.467C101.733 208.933 103.6 208.933 107.333 207.467C111.067 206.133 112.933 206.133 116.4 207.467C118.933 208.267 122.533 208.667 124.533 208.133C128.667 207.067 133.333 202.8 133.333 200C133.333 197.2 130.133 197.467 127.333 200.667C124.133 204.133 118.933 204 115.067 200.4L112 197.6L108.933 200.4C107.2 202 104.4 203.333 102.667 203.333C100.933 203.333 98.1332 202 96.3999 200.4L93.3332 197.6L90.1332 200.533C85.8666 204.533 83.9999 203.2 83.9999 196.133C83.9999 190.933 84.2666 190.4 88.6666 188.8C92.3999 187.467 94.2666 187.467 97.9999 188.8C101.733 190.267 103.6 190.267 107.333 188.8C111.067 187.467 112.933 187.467 116.4 188.8C118.933 189.6 122.533 190 124.533 189.467C128.667 188.4 133.333 184.133 133.333 181.333C133.333 178.533 130.133 178.8 127.333 182C124.133 185.467 118.933 185.333 115.067 181.733L112 178.933L108.933 181.733C107.2 183.333 104.4 184.667 102.667 184.667C100.933 184.667 98.1332 183.333 96.3999 181.733L93.3332 178.933L90.2666 181.733C87.1999 184.533 82.6666 185.733 82.6666 183.6C82.5332 183.067 80.2666 163.333 77.4666 139.6C73.8666 107.867 71.9999 96.1334 70.5332 95.2001C67.7332 93.4667 51.4666 93.7334 49.5999 95.6001ZM67.9999 101.733C67.9999 103.067 71.0666 130.133 74.6666 161.867C78.3999 193.6 81.3332 220.133 81.3332 220.8C81.3332 221.467 75.0666 222 67.3332 222H53.3332V160.667V99.3334H60.6666C66.7999 99.3334 67.9999 99.7334 67.9999 101.733Z" fill="white"/>
<path d="M49.4318 65V56.9091L66.4091 42.0455C67.6818 40.8939 68.7652 39.8409 69.6591 38.8864C70.553 37.9167 71.2348 36.947 71.7045 35.9773C72.1742 34.9924 72.4091 33.9242 72.4091 32.7727C72.4091 31.4848 72.1288 30.3864 71.5682 29.4773C71.0076 28.553 70.2348 27.8409 69.25 27.3409C68.2652 26.8409 67.1364 26.5909 65.8636 26.5909C64.5758 26.5909 63.447 26.8561 62.4773 27.3864C61.5076 27.9015 60.75 28.6515 60.2045 29.6364C59.6742 30.6212 59.4091 31.8182 59.4091 33.2273H48.75C48.75 30.0606 49.4621 27.3258 50.8864 25.0227C52.3106 22.7197 54.3106 20.947 56.8864 19.7045C59.4773 18.447 62.4848 17.8182 65.9091 17.8182C69.4394 17.8182 72.5076 18.4091 75.1136 19.5909C77.7197 20.7727 79.7348 22.4242 81.1591 24.5455C82.5985 26.6515 83.3182 29.0985 83.3182 31.8864C83.3182 33.6591 82.9621 35.4167 82.25 37.1591C81.5379 38.9015 80.2576 40.8258 78.4091 42.9318C76.5758 45.0379 73.9697 47.5606 70.5909 50.5L65.0227 55.6364V55.9318H83.8864V65H49.4318Z" fill="white"/>
</svg>
