<svg width="134" height="224" viewBox="0 0 134 224" fill="none" xmlns="http://www.w3.org/2000/svg">
<path d="M49.5999 91.6001C48.6666 92.5334 47.9999 96.1334 47.9999 99.6001C47.9999 103.067 47.5999 106 47.0666 106C46.5332 106 44.7999 104.667 43.0666 103.067L39.9999 100.267L36.9332 103.067C35.1999 104.667 32.3999 106 30.6666 106C28.9332 106 26.1332 104.667 24.3999 103.067L21.3332 100.267L18.2666 103.067C14.2666 106.8 9.73324 106.8 5.73324 103.067C3.5999 101.067 2.13324 100.667 1.33324 101.467C-0.800097 103.6 1.1999 107.2 5.46657 109.333C9.9999 111.733 13.8666 111.867 17.5999 109.867C19.7332 108.8 21.7332 108.8 25.5999 110.133C29.8666 111.467 31.7332 111.467 35.4666 110.133C39.1999 108.8 41.0666 108.8 44.1332 110C47.5999 111.467 47.9999 112.267 47.9999 118.133C47.9999 121.733 47.5999 124.667 47.0666 124.667C46.5332 124.667 44.7999 123.333 43.0666 121.733L39.9999 118.933L36.9332 121.733C35.1999 123.333 32.3999 124.667 30.6666 124.667C28.9332 124.667 26.1332 123.333 24.3999 121.733L21.3332 118.933L18.2666 121.733C14.2666 125.467 9.73324 125.467 5.73324 121.733C3.5999 119.733 2.13324 119.333 1.33324 120.133C-0.800097 122.267 1.1999 125.867 5.46657 128C9.9999 130.4 13.8666 130.533 17.5999 128.533C19.7332 127.467 21.7332 127.467 25.5999 128.8C29.8666 130.133 31.7332 130.133 35.4666 128.8C39.1999 127.467 41.0666 127.467 44.1332 128.667C47.5999 130.133 47.9999 130.933 47.9999 136.8C47.9999 140.4 47.5999 143.333 47.0666 143.333C46.5332 143.333 44.7999 142 43.0666 140.4L39.9999 137.6L36.9332 140.4C32.9332 144.133 28.3999 144.133 24.3999 140.4L21.3332 137.6L18.2666 140.4C14.2666 144.133 9.73324 144.133 5.73324 140.4C3.5999 138.4 2.13324 138 1.33324 138.8C-0.800097 140.933 1.1999 144.533 5.46657 146.667C9.9999 149.067 13.8666 149.2 17.5999 147.2C19.7332 146.133 21.7332 146.133 25.5999 147.467C29.8666 148.8 31.7332 148.8 35.4666 147.467C39.1999 146.133 41.0666 146.133 44.1332 147.333C47.5999 148.8 47.9999 149.6 47.9999 155.467C47.9999 159.067 47.5999 162 47.0666 162C46.5332 162 44.7999 160.667 43.0666 159.067L39.9999 156.267L36.9332 159.067C35.1999 160.667 32.3999 162 30.6666 162C28.9332 162 26.1332 160.667 24.3999 159.067L21.3332 156.267L18.2666 159.067C14.2666 162.8 9.73324 162.8 5.73324 159.067C3.5999 157.067 2.13324 156.667 1.33324 157.467C-0.800097 159.6 1.1999 163.2 5.46657 165.333C9.9999 167.733 13.8666 167.867 17.5999 165.867C19.7332 164.8 21.7332 164.8 25.5999 166.133C29.8666 167.467 31.7332 167.467 35.4666 166.133C39.1999 164.8 41.0666 164.8 44.1332 166C47.5999 167.467 47.9999 168.267 47.9999 174.133C47.9999 177.733 47.5999 180.667 47.0666 180.667C46.5332 180.667 44.7999 179.333 43.0666 177.733L39.9999 174.933L36.9332 177.733C35.1999 179.333 32.3999 180.667 30.6666 180.667C28.9332 180.667 26.1332 179.333 24.3999 177.733L21.3332 174.933L18.2666 177.733C14.2666 181.467 9.73324 181.467 5.73324 177.733C3.5999 175.733 2.13324 175.333 1.33324 176.133C-0.800097 178.267 1.1999 181.867 5.46657 184C9.9999 186.4 13.8666 186.533 17.5999 184.533C19.7332 183.467 21.7332 183.467 25.5999 184.8C29.8666 186.133 31.7332 186.133 35.4666 184.8C39.1999 183.467 41.0666 183.467 44.1332 184.667C47.5999 186.133 47.9999 186.933 47.9999 192.8C47.9999 196.4 47.5999 199.333 47.0666 199.333C46.5332 199.333 44.7999 198 43.0666 196.4L39.9999 193.6L36.9332 196.4C32.9332 200.133 28.3999 200.133 24.3999 196.4L21.3332 193.6L18.2666 196.4C14.2666 200.133 9.73324 200.133 5.73324 196.4C3.5999 194.4 2.13324 194 1.33324 194.8C-0.800097 196.933 1.1999 200.533 5.46657 202.667C9.9999 205.067 13.8666 205.2 17.5999 203.2C19.7332 202.133 21.7332 202.133 25.5999 203.467C29.8666 204.8 31.7332 204.8 35.4666 203.467C39.1999 202.133 41.0666 202.133 44.1332 203.333C47.5999 204.8 47.9999 205.6 47.9999 211.467C47.9999 215.067 47.5999 218 47.0666 218C46.5332 218 44.7999 216.667 43.0666 215.067L39.9999 212.267L36.9332 215.067C35.1999 216.667 32.3999 218 30.6666 218C28.9332 218 26.1332 216.667 24.3999 215.067L21.3332 212.267L18.2666 215.067C14.2666 218.8 9.73324 218.8 5.73324 215.067C3.46657 212.933 2.26657 212.533 1.1999 213.6C-2.66676 217.467 7.46657 224.533 14.2666 222.667C16.3999 222.133 19.5999 221.867 21.7332 221.867C23.7332 222 27.7332 222 30.6666 222C39.3332 222 42.2666 222.133 64.5332 222.8C78.7999 223.2 86.9332 222.933 89.4666 222C92.2666 220.8 94.2666 220.8 97.8666 222.133C101.733 223.6 103.6 223.6 107.333 222.133C111.067 220.8 112.933 220.8 116.4 222.133C118.933 222.933 122.533 223.333 124.533 222.8C128.667 221.733 133.333 217.467 133.333 214.667C133.333 211.867 130.133 212.133 127.333 215.333C124.133 218.8 118.933 218.667 115.067 215.067L112 212.267L108.933 215.067C104.933 218.8 100.4 218.8 96.3999 215.067C93.4666 212.267 93.3332 212.267 90.6666 214.667C87.4666 217.6 87.1999 217.467 86.1332 210.533C85.1999 205.333 85.3332 204.933 89.1999 203.467C92.3999 202.133 94.1332 202.133 97.8666 203.467C101.733 204.933 103.6 204.933 107.333 203.467C111.067 202.133 112.933 202.133 116.4 203.467C118.933 204.267 122.533 204.667 124.533 204.133C128.667 203.067 133.333 198.8 133.333 196C133.333 193.2 130.133 193.467 127.333 196.667C124.133 200.133 118.933 200 115.067 196.4L112 193.6L108.933 196.4C107.2 198 104.4 199.333 102.667 199.333C100.933 199.333 98.1332 198 96.3999 196.4L93.3332 193.6L90.1332 196.533C85.8666 200.533 83.9999 199.2 83.9999 192.133C83.9999 186.933 84.2666 186.4 88.6666 184.8C92.3999 183.467 94.2666 183.467 97.9999 184.8C101.733 186.267 103.6 186.267 107.333 184.8C111.067 183.467 112.933 183.467 116.4 184.8C118.933 185.6 122.533 186 124.533 185.467C128.667 184.4 133.333 180.133 133.333 177.333C133.333 174.533 130.133 174.8 127.333 178C124.133 181.467 118.933 181.333 115.067 177.733L112 174.933L108.933 177.733C107.2 179.333 104.4 180.667 102.667 180.667C100.933 180.667 98.1332 179.333 96.3999 177.733L93.3332 174.933L90.2666 177.733C87.1999 180.533 82.6666 181.733 82.6666 179.6C82.5332 179.067 80.2666 159.333 77.4666 135.6C73.8666 103.867 71.9999 92.1334 70.5332 91.2001C67.7332 89.4667 51.4666 89.7334 49.5999 91.6001ZM67.9999 97.7334C67.9999 99.0667 71.0666 126.133 74.6666 157.867C78.3999 189.6 81.3332 216.133 81.3332 216.8C81.3332 217.467 75.0666 218 67.3332 218H53.3332V156.667V95.3334H60.6666C66.7999 95.3334 67.9999 95.7334 67.9999 97.7334Z" fill="white"/>
<path d="M67.25 65.6364C63.8561 65.6364 60.8409 65.0227 58.2045 63.7955C55.5682 62.5682 53.4848 60.8788 51.9545 58.7273C50.4394 56.5758 49.6515 54.1061 49.5909 51.3182H60.5C60.5909 53.0303 61.2879 54.4091 62.5909 55.4545C63.8939 56.4848 65.447 57 67.25 57C68.6591 57 69.9091 56.6894 71 56.0682C72.0909 55.447 72.947 54.5758 73.5682 53.4545C74.1894 52.3182 74.4924 51.0152 74.4773 49.5455C74.4924 48.0455 74.1818 46.7348 73.5455 45.6136C72.9242 44.4924 72.0606 43.6212 70.9545 43C69.8636 42.3636 68.6061 42.0455 67.1818 42.0455C65.8333 42.0303 64.553 42.3258 63.3409 42.9318C62.1439 43.5379 61.2348 44.3636 60.6136 45.4091L50.6818 43.5455L52.7045 18.4545H82.5682V27.5227H61.9545L60.8864 38.5H61.1591C61.9318 37.2121 63.1742 36.1515 64.8864 35.3182C66.6136 34.4697 68.5758 34.0455 70.7727 34.0455C73.5606 34.0455 76.0455 34.697 78.2273 36C80.4242 37.2879 82.1515 39.0758 83.4091 41.3636C84.6818 43.6515 85.3182 46.2727 85.3182 49.2273C85.3182 52.4242 84.5606 55.2576 83.0455 57.7273C81.5455 60.197 79.4394 62.1364 76.7273 63.5455C74.0303 64.9394 70.8712 65.6364 67.25 65.6364Z" fill="white"/>
</svg>
