<svg width="134" height="228" viewBox="0 0 134 228" fill="none" xmlns="http://www.w3.org/2000/svg">
<path d="M49.5999 95.6001C48.6666 96.5334 47.9999 100.133 47.9999 103.6C47.9999 107.067 47.5999 110 47.0666 110C46.5332 110 44.7999 108.667 43.0666 107.067L39.9999 104.267L36.9332 107.067C35.1999 108.667 32.3999 110 30.6666 110C28.9332 110 26.1332 108.667 24.3999 107.067L21.3332 104.267L18.2666 107.067C14.2666 110.8 9.73324 110.8 5.73324 107.067C3.5999 105.067 2.13324 104.667 1.33324 105.467C-0.800097 107.6 1.1999 111.2 5.46657 113.333C9.9999 115.733 13.8666 115.867 17.5999 113.867C19.7332 112.8 21.7332 112.8 25.5999 114.133C29.8666 115.467 31.7332 115.467 35.4666 114.133C39.1999 112.8 41.0666 112.8 44.1332 114C47.5999 115.467 47.9999 116.267 47.9999 122.133C47.9999 125.733 47.5999 128.667 47.0666 128.667C46.5332 128.667 44.7999 127.333 43.0666 125.733L39.9999 122.933L36.9332 125.733C35.1999 127.333 32.3999 128.667 30.6666 128.667C28.9332 128.667 26.1332 127.333 24.3999 125.733L21.3332 122.933L18.2666 125.733C14.2666 129.467 9.73324 129.467 5.73324 125.733C3.5999 123.733 2.13324 123.333 1.33324 124.133C-0.800097 126.267 1.1999 129.867 5.46657 132C9.9999 134.4 13.8666 134.533 17.5999 132.533C19.7332 131.467 21.7332 131.467 25.5999 132.8C29.8666 134.133 31.7332 134.133 35.4666 132.8C39.1999 131.467 41.0666 131.467 44.1332 132.667C47.5999 134.133 47.9999 134.933 47.9999 140.8C47.9999 144.4 47.5999 147.333 47.0666 147.333C46.5332 147.333 44.7999 146 43.0666 144.4L39.9999 141.6L36.9332 144.4C32.9332 148.133 28.3999 148.133 24.3999 144.4L21.3332 141.6L18.2666 144.4C14.2666 148.133 9.73324 148.133 5.73324 144.4C3.5999 142.4 2.13324 142 1.33324 142.8C-0.800097 144.933 1.1999 148.533 5.46657 150.667C9.9999 153.067 13.8666 153.2 17.5999 151.2C19.7332 150.133 21.7332 150.133 25.5999 151.467C29.8666 152.8 31.7332 152.8 35.4666 151.467C39.1999 150.133 41.0666 150.133 44.1332 151.333C47.5999 152.8 47.9999 153.6 47.9999 159.467C47.9999 163.067 47.5999 166 47.0666 166C46.5332 166 44.7999 164.667 43.0666 163.067L39.9999 160.267L36.9332 163.067C35.1999 164.667 32.3999 166 30.6666 166C28.9332 166 26.1332 164.667 24.3999 163.067L21.3332 160.267L18.2666 163.067C14.2666 166.8 9.73324 166.8 5.73324 163.067C3.5999 161.067 2.13324 160.667 1.33324 161.467C-0.800097 163.6 1.1999 167.2 5.46657 169.333C9.9999 171.733 13.8666 171.867 17.5999 169.867C19.7332 168.8 21.7332 168.8 25.5999 170.133C29.8666 171.467 31.7332 171.467 35.4666 170.133C39.1999 168.8 41.0666 168.8 44.1332 170C47.5999 171.467 47.9999 172.267 47.9999 178.133C47.9999 181.733 47.5999 184.667 47.0666 184.667C46.5332 184.667 44.7999 183.333 43.0666 181.733L39.9999 178.933L36.9332 181.733C35.1999 183.333 32.3999 184.667 30.6666 184.667C28.9332 184.667 26.1332 183.333 24.3999 181.733L21.3332 178.933L18.2666 181.733C14.2666 185.467 9.73324 185.467 5.73324 181.733C3.5999 179.733 2.13324 179.333 1.33324 180.133C-0.800097 182.267 1.1999 185.867 5.46657 188C9.9999 190.4 13.8666 190.533 17.5999 188.533C19.7332 187.467 21.7332 187.467 25.5999 188.8C29.8666 190.133 31.7332 190.133 35.4666 188.8C39.1999 187.467 41.0666 187.467 44.1332 188.667C47.5999 190.133 47.9999 190.933 47.9999 196.8C47.9999 200.4 47.5999 203.333 47.0666 203.333C46.5332 203.333 44.7999 202 43.0666 200.4L39.9999 197.6L36.9332 200.4C32.9332 204.133 28.3999 204.133 24.3999 200.4L21.3332 197.6L18.2666 200.4C14.2666 204.133 9.73324 204.133 5.73324 200.4C3.5999 198.4 2.13324 198 1.33324 198.8C-0.800097 200.933 1.1999 204.533 5.46657 206.667C9.9999 209.067 13.8666 209.2 17.5999 207.2C19.7332 206.133 21.7332 206.133 25.5999 207.467C29.8666 208.8 31.7332 208.8 35.4666 207.467C39.1999 206.133 41.0666 206.133 44.1332 207.333C47.5999 208.8 47.9999 209.6 47.9999 215.467C47.9999 219.067 47.5999 222 47.0666 222C46.5332 222 44.7999 220.667 43.0666 219.067L39.9999 216.267L36.9332 219.067C35.1999 220.667 32.3999 222 30.6666 222C28.9332 222 26.1332 220.667 24.3999 219.067L21.3332 216.267L18.2666 219.067C14.2666 222.8 9.73324 222.8 5.73324 219.067C3.46657 216.933 2.26657 216.533 1.1999 217.6C-2.66676 221.467 7.46657 228.533 14.2666 226.667C16.3999 226.133 19.5999 225.867 21.7332 225.867C23.7332 226 27.7332 226 30.6666 226C39.3332 226 42.2666 226.133 64.5332 226.8C78.7999 227.2 86.9332 226.933 89.4666 226C92.2666 224.8 94.2666 224.8 97.8666 226.133C101.733 227.6 103.6 227.6 107.333 226.133C111.067 224.8 112.933 224.8 116.4 226.133C118.933 226.933 122.533 227.333 124.533 226.8C128.667 225.733 133.333 221.467 133.333 218.667C133.333 215.867 130.133 216.133 127.333 219.333C124.133 222.8 118.933 222.667 115.067 219.067L112 216.267L108.933 219.067C104.933 222.8 100.4 222.8 96.3999 219.067C93.4666 216.267 93.3332 216.267 90.6666 218.667C87.4666 221.6 87.1999 221.467 86.1332 214.533C85.1999 209.333 85.3332 208.933 89.1999 207.467C92.3999 206.133 94.1332 206.133 97.8666 207.467C101.733 208.933 103.6 208.933 107.333 207.467C111.067 206.133 112.933 206.133 116.4 207.467C118.933 208.267 122.533 208.667 124.533 208.133C128.667 207.067 133.333 202.8 133.333 200C133.333 197.2 130.133 197.467 127.333 200.667C124.133 204.133 118.933 204 115.067 200.4L112 197.6L108.933 200.4C107.2 202 104.4 203.333 102.667 203.333C100.933 203.333 98.1332 202 96.3999 200.4L93.3332 197.6L90.1332 200.533C85.8666 204.533 83.9999 203.2 83.9999 196.133C83.9999 190.933 84.2666 190.4 88.6666 188.8C92.3999 187.467 94.2666 187.467 97.9999 188.8C101.733 190.267 103.6 190.267 107.333 188.8C111.067 187.467 112.933 187.467 116.4 188.8C118.933 189.6 122.533 190 124.533 189.467C128.667 188.4 133.333 184.133 133.333 181.333C133.333 178.533 130.133 178.8 127.333 182C124.133 185.467 118.933 185.333 115.067 181.733L112 178.933L108.933 181.733C107.2 183.333 104.4 184.667 102.667 184.667C100.933 184.667 98.1332 183.333 96.3999 181.733L93.3332 178.933L90.2666 181.733C87.1999 184.533 82.6666 185.733 82.6666 183.6C82.5332 183.067 80.2666 163.333 77.4666 139.6C73.8666 107.867 71.9999 96.1334 70.5332 95.2001C67.7332 93.4667 51.4666 93.7334 49.5999 95.6001ZM67.9999 101.733C67.9999 103.067 71.0666 130.133 74.6666 161.867C78.3999 193.6 81.3332 220.133 81.3332 220.8C81.3332 221.467 75.0666 222 67.3332 222H53.3332V160.667V99.3334H60.6666C66.7999 99.3334 67.9999 99.7334 67.9999 101.733Z" fill="white"/>
<path d="M67.1364 65.6364C63.5909 65.6364 60.447 65.0303 57.7045 63.8182C54.9773 62.5909 52.8258 60.9015 51.25 58.75C49.6742 56.5985 48.8712 54.1212 48.8409 51.3182H60.1591C60.2045 52.3333 60.5303 53.2348 61.1364 54.0227C61.7424 54.7955 62.5682 55.4015 63.6136 55.8409C64.6591 56.2803 65.8485 56.5 67.1818 56.5C68.5152 56.5 69.6894 56.2652 70.7045 55.7955C71.7348 55.3106 72.5379 54.6515 73.1136 53.8182C73.6894 52.9697 73.9697 52 73.9545 50.9091C73.9697 49.8182 73.6591 48.8485 73.0227 48C72.3864 47.1515 71.4848 46.4924 70.3182 46.0227C69.1667 45.553 67.803 45.3182 66.2273 45.3182H61.7045V37.3182H66.2273C67.6061 37.3182 68.8182 37.0909 69.8636 36.6364C70.9242 36.1818 71.75 35.5455 72.3409 34.7273C72.9318 33.8939 73.2197 32.9394 73.2045 31.8636C73.2197 30.8182 72.9697 29.9015 72.4545 29.1136C71.9545 28.3106 71.25 27.6894 70.3409 27.25C69.447 26.8106 68.4091 26.5909 67.2273 26.5909C65.9848 26.5909 64.8561 26.8106 63.8409 27.25C62.8409 27.6894 62.0455 28.3106 61.4545 29.1136C60.8636 29.9167 60.553 30.8485 60.5227 31.9091H49.7727C49.803 29.1364 50.5758 26.697 52.0909 24.5909C53.6061 22.4697 55.6667 20.8106 58.2727 19.6136C60.8939 18.4167 63.8788 17.8182 67.2273 17.8182C70.5606 17.8182 73.4924 18.4015 76.0227 19.5682C78.553 20.7348 80.5227 22.3258 81.9318 24.3409C83.3409 26.3409 84.0455 28.6061 84.0455 31.1364C84.0606 33.7576 83.2045 35.9167 81.4773 37.6136C79.7652 39.3106 77.5606 40.3561 74.8636 40.75V41.1136C78.4697 41.5379 81.1894 42.7045 83.0227 44.6136C84.8712 46.5227 85.7879 48.9091 85.7727 51.7727C85.7727 54.4697 84.9773 56.8636 83.3864 58.9545C81.8106 61.0303 79.6136 62.6667 76.7955 63.8636C73.9924 65.0455 70.7727 65.6364 67.1364 65.6364Z" fill="white"/>
</svg>
