<svg width="18" height="65" viewBox="0 0 18 65" fill="none" xmlns="http://www.w3.org/2000/svg">
<rect y="20" width="18" height="45" fill="#FEC808"/>
<rect y="20" width="3" height="15" fill="black"/>
<rect x="3" y="20" width="6" height="3" fill="black"/>
<rect x="3" y="32" width="6" height="3" fill="black"/>
<rect x="3" y="26" width="6" height="3" fill="black"/>
<rect y="50" width="3" height="15" fill="black"/>
<rect x="3" y="50" width="6" height="3" fill="black"/>
<rect x="3" y="62" width="6" height="3" fill="black"/>
<rect x="3" y="56" width="6" height="3" fill="black"/>
<rect x="18" y="50" width="3" height="15" transform="rotate(180 18 50)" fill="black"/>
<rect x="15" y="50" width="6" height="3" transform="rotate(180 15 50)" fill="black"/>
<rect x="15" y="38" width="6" height="3" transform="rotate(180 15 38)" fill="black"/>
<rect x="15" y="44" width="6" height="3" transform="rotate(180 15 44)" fill="black"/>
<path d="M9.296 12.168C8.512 12.168 7.828 12.012 7.244 11.7C6.668 11.388 6.216 10.924 5.888 10.308C5.568 9.692 5.408 8.932 5.408 8.028C5.408 7.052 5.596 6.224 5.972 5.544C6.356 4.856 6.88 4.332 7.544 3.972C8.216 3.612 8.992 3.432 9.872 3.432C10.344 3.432 10.796 3.488 11.228 3.6C11.668 3.704 12.04 3.852 12.344 4.044L11.48 5.748C11.24 5.58 10.988 5.468 10.724 5.412C10.468 5.348 10.204 5.316 9.932 5.316C9.284 5.316 8.764 5.512 8.372 5.904C7.988 6.296 7.796 6.868 7.796 7.62C7.796 7.756 7.796 7.9 7.796 8.052C7.804 8.196 7.82 8.344 7.844 8.496L7.244 8.004C7.404 7.708 7.596 7.46 7.82 7.26C8.052 7.06 8.324 6.908 8.636 6.804C8.956 6.7 9.312 6.648 9.704 6.648C10.232 6.648 10.712 6.76 11.144 6.984C11.584 7.2 11.936 7.508 12.2 7.908C12.464 8.3 12.596 8.764 12.596 9.3C12.596 9.884 12.448 10.392 12.152 10.824C11.856 11.248 11.46 11.58 10.964 11.82C10.468 12.052 9.912 12.168 9.296 12.168ZM9.152 10.476C9.376 10.476 9.572 10.432 9.74 10.344C9.916 10.256 10.052 10.132 10.148 9.972C10.244 9.812 10.292 9.624 10.292 9.408C10.292 9.088 10.184 8.832 9.968 8.64C9.76 8.448 9.484 8.352 9.14 8.352C8.908 8.352 8.704 8.396 8.528 8.484C8.36 8.572 8.224 8.696 8.12 8.856C8.024 9.016 7.976 9.204 7.976 9.42C7.976 9.628 8.024 9.812 8.12 9.972C8.216 10.124 8.352 10.248 8.528 10.344C8.704 10.432 8.912 10.476 9.152 10.476Z" fill="white"/>
</svg>
