<svg width="18" height="65" viewBox="0 0 18 65" fill="none" xmlns="http://www.w3.org/2000/svg">
<rect y="20" width="18" height="45" fill="#FEC808"/>
<rect y="20" width="3" height="15" fill="black"/>
<rect x="3" y="20" width="6" height="3" fill="black"/>
<rect x="3" y="32" width="6" height="3" fill="black"/>
<rect x="3" y="26" width="6" height="3" fill="black"/>
<rect y="50" width="3" height="15" fill="black"/>
<rect x="3" y="50" width="6" height="3" fill="black"/>
<rect x="3" y="62" width="6" height="3" fill="black"/>
<rect x="3" y="56" width="6" height="3" fill="black"/>
<rect x="18" y="50" width="3" height="15" transform="rotate(180 18 50)" fill="black"/>
<rect x="15" y="50" width="6" height="3" transform="rotate(180 15 50)" fill="black"/>
<rect x="15" y="38" width="6" height="3" transform="rotate(180 15 38)" fill="black"/>
<rect x="15" y="44" width="6" height="3" transform="rotate(180 15 44)" fill="black"/>
<path d="M3.632 12V4.452L4.652 5.436H2.072V3.6H6.008V12H3.632ZM10.9793 12.168C10.2593 12.168 9.61928 11.996 9.05928 11.652C8.50728 11.308 8.07128 10.812 7.75128 10.164C7.43128 9.516 7.27128 8.728 7.27128 7.8C7.27128 6.872 7.43128 6.084 7.75128 5.436C8.07128 4.788 8.50728 4.292 9.05928 3.948C9.61928 3.604 10.2593 3.432 10.9793 3.432C11.6913 3.432 12.3233 3.604 12.8753 3.948C13.4353 4.292 13.8753 4.788 14.1953 5.436C14.5153 6.084 14.6753 6.872 14.6753 7.8C14.6753 8.728 14.5153 9.516 14.1953 10.164C13.8753 10.812 13.4353 11.308 12.8753 11.652C12.3233 11.996 11.6913 12.168 10.9793 12.168ZM10.9793 10.224C11.2353 10.224 11.4593 10.144 11.6513 9.984C11.8513 9.824 12.0073 9.568 12.1193 9.216C12.2313 8.856 12.2873 8.384 12.2873 7.8C12.2873 7.208 12.2313 6.736 12.1193 6.384C12.0073 6.032 11.8513 5.776 11.6513 5.616C11.4593 5.456 11.2353 5.376 10.9793 5.376C10.7233 5.376 10.4953 5.456 10.2953 5.616C10.1033 5.776 9.94728 6.032 9.82728 6.384C9.71528 6.736 9.65928 7.208 9.65928 7.8C9.65928 8.384 9.71528 8.856 9.82728 9.216C9.94728 9.568 10.1033 9.824 10.2953 9.984C10.4953 10.144 10.7233 10.224 10.9793 10.224Z" fill="white"/>
</svg>
