<svg width="18" height="65" viewBox="0 0 18 65" fill="none" xmlns="http://www.w3.org/2000/svg">
<rect y="20" width="18" height="45" fill="#FEC808"/>
<rect y="20" width="3" height="15" fill="black"/>
<rect x="3" y="20" width="6" height="3" fill="black"/>
<rect x="3" y="32" width="6" height="3" fill="black"/>
<rect x="3" y="26" width="6" height="3" fill="black"/>
<rect y="50" width="3" height="15" fill="black"/>
<rect x="3" y="50" width="6" height="3" fill="black"/>
<rect x="3" y="62" width="6" height="3" fill="black"/>
<rect x="3" y="56" width="6" height="3" fill="black"/>
<rect x="18" y="50" width="3" height="15" transform="rotate(180 18 50)" fill="black"/>
<rect x="15" y="50" width="6" height="3" transform="rotate(180 15 50)" fill="black"/>
<rect x="15" y="38" width="6" height="3" transform="rotate(180 15 38)" fill="black"/>
<rect x="15" y="44" width="6" height="3" transform="rotate(180 15 44)" fill="black"/>
<path d="M5.324 10.392V8.844L9.092 3.6H11.552L7.892 8.844L6.764 8.508H13.328V10.392H5.324ZM9.764 12V10.392L9.836 8.508V7.08H12.08V12H9.764Z" fill="white"/>
</svg>
