<svg width="18" height="65" viewBox="0 0 18 65" fill="none" xmlns="http://www.w3.org/2000/svg">
<rect y="20" width="18" height="45" fill="#FEC808"/>
<rect y="20" width="3" height="15" fill="black"/>
<rect x="3" y="20" width="6" height="3" fill="black"/>
<rect x="3" y="32" width="6" height="3" fill="black"/>
<rect x="3" y="26" width="6" height="3" fill="black"/>
<rect y="50" width="3" height="15" fill="black"/>
<rect x="3" y="50" width="6" height="3" fill="black"/>
<rect x="3" y="62" width="6" height="3" fill="black"/>
<rect x="3" y="56" width="6" height="3" fill="black"/>
<rect x="18" y="50" width="3" height="15" transform="rotate(180 18 50)" fill="black"/>
<rect x="15" y="50" width="6" height="3" transform="rotate(180 15 50)" fill="black"/>
<rect x="15" y="38" width="6" height="3" transform="rotate(180 15 38)" fill="black"/>
<rect x="15" y="44" width="6" height="3" transform="rotate(180 15 44)" fill="black"/>
<path d="M9.008 12.168C8.28 12.168 7.644 12.06 7.1 11.844C6.556 11.628 6.128 11.324 5.816 10.932C5.512 10.532 5.36 10.064 5.36 9.528C5.36 9 5.512 8.552 5.816 8.184C6.128 7.808 6.556 7.524 7.1 7.332C7.652 7.132 8.288 7.032 9.008 7.032C9.728 7.032 10.36 7.132 10.904 7.332C11.456 7.524 11.884 7.808 12.188 8.184C12.5 8.552 12.656 9 12.656 9.528C12.656 10.064 12.504 10.532 12.2 10.932C11.896 11.324 11.468 11.628 10.916 11.844C10.372 12.06 9.736 12.168 9.008 12.168ZM9.008 10.5C9.392 10.5 9.696 10.408 9.92 10.224C10.152 10.04 10.268 9.784 10.268 9.456C10.268 9.136 10.152 8.884 9.92 8.7C9.696 8.508 9.392 8.412 9.008 8.412C8.624 8.412 8.316 8.508 8.084 8.7C7.86 8.884 7.748 9.136 7.748 9.456C7.748 9.784 7.86 10.04 8.084 10.224C8.316 10.408 8.624 10.5 9.008 10.5ZM9.008 8.208C8.352 8.208 7.772 8.116 7.268 7.932C6.772 7.748 6.38 7.484 6.092 7.14C5.804 6.788 5.66 6.368 5.66 5.88C5.66 5.376 5.8 4.944 6.08 4.584C6.368 4.224 6.764 3.944 7.268 3.744C7.772 3.536 8.352 3.432 9.008 3.432C9.672 3.432 10.252 3.536 10.748 3.744C11.252 3.944 11.644 4.224 11.924 4.584C12.212 4.944 12.356 5.376 12.356 5.88C12.356 6.368 12.212 6.788 11.924 7.14C11.644 7.484 11.252 7.748 10.748 7.932C10.244 8.116 9.664 8.208 9.008 8.208ZM9.008 6.864C9.312 6.864 9.556 6.788 9.74 6.636C9.924 6.476 10.016 6.26 10.016 5.988C10.016 5.7 9.92 5.48 9.728 5.328C9.544 5.176 9.304 5.1 9.008 5.1C8.712 5.1 8.472 5.176 8.288 5.328C8.104 5.48 8.012 5.7 8.012 5.988C8.012 6.26 8.104 6.476 8.288 6.636C8.472 6.788 8.712 6.864 9.008 6.864Z" fill="white"/>
</svg>
