<svg width="18" height="65" viewBox="0 0 18 65" fill="none" xmlns="http://www.w3.org/2000/svg">
<rect y="20" width="18" height="45" fill="#FEC808"/>
<rect y="20" width="3" height="15" fill="black"/>
<rect x="3" y="20" width="6" height="3" fill="black"/>
<rect x="3" y="32" width="6" height="3" fill="black"/>
<rect x="3" y="26" width="6" height="3" fill="black"/>
<rect y="50" width="3" height="15" fill="black"/>
<rect x="3" y="50" width="6" height="3" fill="black"/>
<rect x="3" y="62" width="6" height="3" fill="black"/>
<rect x="3" y="56" width="6" height="3" fill="black"/>
<rect x="18" y="50" width="3" height="15" transform="rotate(180 18 50)" fill="black"/>
<rect x="15" y="50" width="6" height="3" transform="rotate(180 15 50)" fill="black"/>
<rect x="15" y="38" width="6" height="3" transform="rotate(180 15 38)" fill="black"/>
<rect x="15" y="44" width="6" height="3" transform="rotate(180 15 44)" fill="black"/>
<path d="M5.36 12V10.512L8.504 7.572C8.728 7.364 8.892 7.18 8.996 7.02C9.108 6.86 9.18 6.716 9.212 6.588C9.252 6.452 9.272 6.328 9.272 6.216C9.272 5.944 9.18 5.732 8.996 5.58C8.82 5.428 8.552 5.352 8.192 5.352C7.888 5.352 7.604 5.42 7.34 5.556C7.076 5.692 6.86 5.896 6.692 6.168L4.928 5.184C5.24 4.656 5.692 4.232 6.284 3.912C6.876 3.592 7.584 3.432 8.408 3.432C9.056 3.432 9.624 3.536 10.112 3.744C10.6 3.952 10.98 4.248 11.252 4.632C11.532 5.016 11.672 5.468 11.672 5.988C11.672 6.26 11.636 6.532 11.564 6.804C11.492 7.068 11.352 7.352 11.144 7.656C10.944 7.952 10.644 8.284 10.244 8.652L7.748 10.956L7.352 10.116H11.9V12H5.36Z" fill="white"/>
</svg>
