<svg width="18" height="65" viewBox="0 0 18 65" fill="none" xmlns="http://www.w3.org/2000/svg">
<rect y="20" width="18" height="45" fill="#FEC808"/>
<rect y="20" width="3" height="15" fill="black"/>
<rect x="3" y="20" width="6" height="3" fill="black"/>
<rect x="3" y="32" width="6" height="3" fill="black"/>
<rect x="3" y="26" width="6" height="3" fill="black"/>
<rect y="50" width="3" height="15" fill="black"/>
<rect x="3" y="50" width="6" height="3" fill="black"/>
<rect x="3" y="62" width="6" height="3" fill="black"/>
<rect x="3" y="56" width="6" height="3" fill="black"/>
<rect x="18" y="50" width="3" height="15" transform="rotate(180 18 50)" fill="black"/>
<rect x="15" y="50" width="6" height="3" transform="rotate(180 15 50)" fill="black"/>
<rect x="15" y="38" width="6" height="3" transform="rotate(180 15 38)" fill="black"/>
<rect x="15" y="44" width="6" height="3" transform="rotate(180 15 44)" fill="black"/>
<path d="M8.216 12.168C7.632 12.168 7.048 12.096 6.464 11.952C5.888 11.808 5.384 11.604 4.952 11.34L5.816 9.552C6.152 9.776 6.524 9.948 6.932 10.068C7.348 10.188 7.752 10.248 8.144 10.248C8.552 10.248 8.876 10.172 9.116 10.02C9.356 9.868 9.476 9.652 9.476 9.372C9.476 9.124 9.376 8.928 9.176 8.784C8.976 8.632 8.648 8.556 8.192 8.556H7.196V7.056L9.452 4.62L9.68 5.436H5.384V3.6H11.456V5.088L9.2 7.524L8.036 6.864H8.684C9.732 6.864 10.524 7.1 11.06 7.572C11.604 8.036 11.876 8.636 11.876 9.372C11.876 9.852 11.744 10.304 11.48 10.728C11.224 11.152 10.828 11.5 10.292 11.772C9.756 12.036 9.064 12.168 8.216 12.168Z" fill="white"/>
</svg>
