<svg width="18" height="65" viewBox="0 0 18 65" fill="none" xmlns="http://www.w3.org/2000/svg">
<rect y="20" width="18" height="45" fill="#FEC808"/>
<rect y="20" width="3" height="15" fill="black"/>
<rect x="3" y="20" width="6" height="3" fill="black"/>
<rect x="3" y="32" width="6" height="3" fill="black"/>
<rect x="3" y="26" width="6" height="3" fill="black"/>
<rect y="50" width="3" height="15" fill="black"/>
<rect x="3" y="50" width="6" height="3" fill="black"/>
<rect x="3" y="62" width="6" height="3" fill="black"/>
<rect x="3" y="56" width="6" height="3" fill="black"/>
<rect x="18" y="50" width="3" height="15" transform="rotate(180 18 50)" fill="black"/>
<rect x="15" y="50" width="6" height="3" transform="rotate(180 15 50)" fill="black"/>
<rect x="15" y="38" width="6" height="3" transform="rotate(180 15 38)" fill="black"/>
<rect x="15" y="44" width="6" height="3" transform="rotate(180 15 44)" fill="black"/>
<path d="M8.48 3.432C9.272 3.432 9.956 3.588 10.532 3.9C11.116 4.212 11.568 4.676 11.888 5.292C12.216 5.9 12.38 6.66 12.38 7.572C12.38 8.548 12.188 9.38 11.804 10.068C11.428 10.748 10.904 11.268 10.232 11.628C9.568 11.988 8.792 12.168 7.904 12.168C7.44 12.168 6.992 12.112 6.56 12C6.128 11.896 5.756 11.748 5.444 11.556L6.308 9.852C6.548 10.02 6.796 10.136 7.052 10.2C7.316 10.256 7.584 10.284 7.856 10.284C8.504 10.284 9.02 10.088 9.404 9.696C9.788 9.304 9.98 8.732 9.98 7.98C9.98 7.844 9.98 7.704 9.98 7.56C9.98 7.408 9.968 7.256 9.944 7.104L10.532 7.596C10.388 7.892 10.2 8.14 9.968 8.34C9.736 8.54 9.464 8.692 9.152 8.796C8.84 8.9 8.484 8.952 8.084 8.952C7.556 8.952 7.072 8.844 6.632 8.628C6.2 8.404 5.852 8.096 5.588 7.704C5.324 7.304 5.192 6.836 5.192 6.3C5.192 5.716 5.34 5.212 5.636 4.788C5.932 4.356 6.328 4.024 6.824 3.792C7.32 3.552 7.872 3.432 8.48 3.432ZM8.636 5.124C8.412 5.124 8.216 5.168 8.048 5.256C7.88 5.344 7.744 5.468 7.64 5.628C7.544 5.78 7.496 5.968 7.496 6.192C7.496 6.512 7.6 6.768 7.808 6.96C8.024 7.152 8.304 7.248 8.648 7.248C8.88 7.248 9.084 7.204 9.26 7.116C9.436 7.028 9.572 6.904 9.668 6.744C9.764 6.584 9.812 6.396 9.812 6.18C9.812 5.972 9.764 5.792 9.668 5.64C9.572 5.48 9.436 5.356 9.26 5.268C9.084 5.172 8.876 5.124 8.636 5.124Z" fill="white"/>
</svg>
