<svg width="18" height="65" viewBox="0 0 18 65" fill="none" xmlns="http://www.w3.org/2000/svg">
<rect y="20" width="18" height="45" fill="#FEC808"/>
<rect y="20" width="3" height="15" fill="black"/>
<rect x="3" y="20" width="6" height="3" fill="black"/>
<rect x="3" y="32" width="6" height="3" fill="black"/>
<rect x="3" y="26" width="6" height="3" fill="black"/>
<rect y="50" width="3" height="15" fill="black"/>
<rect x="3" y="50" width="6" height="3" fill="black"/>
<rect x="3" y="62" width="6" height="3" fill="black"/>
<rect x="3" y="56" width="6" height="3" fill="black"/>
<rect x="18" y="50" width="3" height="15" transform="rotate(180 18 50)" fill="black"/>
<rect x="15" y="50" width="6" height="3" transform="rotate(180 15 50)" fill="black"/>
<rect x="15" y="38" width="6" height="3" transform="rotate(180 15 38)" fill="black"/>
<rect x="15" y="44" width="6" height="3" transform="rotate(180 15 44)" fill="black"/>
<path d="M6.68 12L9.956 4.476L10.592 5.484H6.332L7.304 4.392V6.78H5.276V3.6H12.236V5.088L9.272 12H6.68Z" fill="white"/>
</svg>
