<svg width="48" height="70" viewBox="0 0 48 70" fill="none" xmlns="http://www.w3.org/2000/svg">
<path d="M4.36364 49.8125H13.3091C12.6909 49.2281 12.1182 48.5922 11.5909 47.9047C11.0636 47.2172 10.6 46.4781 10.2 45.6875H4.36364V49.8125ZM24 49.8125C27.0182 49.8125 29.5909 48.807 31.7182 46.7961C33.8455 44.7852 34.9091 42.3531 34.9091 39.5C34.9091 36.6469 33.8455 34.2148 31.7182 32.2039C29.5909 30.193 27.0182 29.1875 24 29.1875C20.9818 29.1875 18.4091 30.193 16.2818 32.2039C14.1545 34.2148 13.0909 36.6469 13.0909 39.5C13.0909 42.3531 14.1545 44.7852 16.2818 46.7961C18.4091 48.807 20.9818 49.8125 24 49.8125ZM37.8 33.3125H43.6364V29.1875H34.6909C35.3091 29.7719 35.8818 30.4078 36.4091 31.0953C36.9364 31.7828 37.4 32.5219 37.8 33.3125ZM0 56V39.5H4.36364V41.5625H8.89091C8.81818 41.2187 8.77273 40.8836 8.75455 40.557C8.73636 40.2305 8.72727 39.8781 8.72727 39.5C8.72727 35.4781 10.2091 32.0664 13.1727 29.2648C16.1364 26.4633 19.7455 25.0625 24 25.0625H43.6364V23H48V39.5H43.6364V37.4375H39.1091C39.1818 37.7813 39.2273 38.1164 39.2455 38.443C39.2636 38.7695 39.2727 39.1219 39.2727 39.5C39.2727 43.5219 37.7909 46.9336 34.8273 49.7352C31.8636 52.5367 28.2545 53.9375 24 53.9375H4.36364V56H0ZM24 45.6875C22.8 45.6875 21.7727 45.2836 20.9182 44.4758C20.0636 43.668 19.6364 42.6969 19.6364 41.5625C19.6364 40.7719 19.8091 39.9898 20.1545 39.2164C20.5 38.443 21.1636 37.3344 22.1455 35.8906L24 33.3125L25.8545 35.8906C26.8364 37.3344 27.5 38.443 27.8455 39.2164C28.1909 39.9898 28.3636 40.7719 28.3636 41.5625C28.3636 42.6969 27.9364 43.668 27.0818 44.4758C26.2273 45.2836 25.2 45.6875 24 45.6875Z" fill="white"/>
<path d="M18.213 14.7443V12.2159L23.5184 7.57102C23.9162 7.21122 24.2547 6.88212 24.5341 6.58382C24.8134 6.28082 25.0265 5.97772 25.1733 5.67472C25.3201 5.36695 25.3934 5.03315 25.3934 4.6733C25.3934 4.27084 25.3058 3.92756 25.1307 3.64347C24.9555 3.35464 24.714 3.1321 24.4062 2.97585C24.0985 2.8196 23.7457 2.74148 23.348 2.74148C22.9455 2.74148 22.5928 2.82434 22.2897 2.99006C21.9867 3.15104 21.75 3.38542 21.5795 3.69318C21.4138 4.00095 21.3309 4.375 21.3309 4.81534H18C18 3.82576 18.2225 2.97112 18.6676 2.25142C19.1127 1.53173 19.7377 0.97775 20.5426 0.58949C21.3522 0.1965 22.2921 0 23.3622 0C24.4654 0 25.4242 0.18466 26.2386 0.55398C27.053 0.9233 27.6827 1.4394 28.1278 2.10227C28.5776 2.76042 28.8025 3.5251 28.8025 4.39631C28.8025 4.95029 28.6913 5.49953 28.4687 6.04402C28.2462 6.58852 27.8461 7.18982 27.2684 7.84802C26.6955 8.50612 25.8811 9.29452 24.8253 10.2131L23.0852 11.8182V11.9105H28.9801V14.7443H18.213Z" fill="white"/>
<path d="M10.84 69V60.6H15.136C16.24 60.6 17.064 60.804 17.608 61.212C18.152 61.612 18.424 62.14 18.424 62.796C18.424 63.228 18.308 63.608 18.076 63.936C17.852 64.256 17.532 64.512 17.116 64.704C16.708 64.888 16.22 64.98 15.652 64.98L15.892 64.404C16.484 64.404 17 64.496 17.44 64.68C17.88 64.856 18.22 65.116 18.46 65.46C18.708 65.796 18.832 66.208 18.832 66.696C18.832 67.424 18.536 67.992 17.944 68.4C17.36 68.8 16.504 69 15.376 69H10.84ZM13.192 67.284H15.184C15.592 67.284 15.9 67.216 16.108 67.08C16.324 66.936 16.432 66.72 16.432 66.432C16.432 66.144 16.324 65.932 16.108 65.796C15.9 65.652 15.592 65.58 15.184 65.58H13.024V63.936H14.824C15.224 63.936 15.524 63.868 15.724 63.732C15.924 63.596 16.024 63.392 16.024 63.12C16.024 62.848 15.924 62.648 15.724 62.52C15.524 62.384 15.224 62.316 14.824 62.316H13.192V67.284ZM20.8547 69V61.452L21.8747 62.436H19.2947V60.6H23.2307V69H20.8547ZM24.4459 69V67.512L27.5899 64.572C27.8139 64.364 27.9779 64.18 28.0819 64.02C28.1939 63.86 28.2659 63.716 28.2979 63.588C28.3379 63.452 28.3579 63.328 28.3579 63.216C28.3579 62.944 28.2659 62.732 28.0819 62.58C27.9059 62.428 27.6379 62.352 27.2779 62.352C26.9739 62.352 26.6899 62.42 26.4259 62.556C26.1619 62.692 25.9459 62.896 25.7779 63.168L24.0139 62.184C24.3259 61.656 24.7779 61.232 25.3699 60.912C25.9619 60.592 26.6699 60.432 27.4939 60.432C28.1419 60.432 28.7099 60.536 29.1979 60.744C29.6859 60.952 30.0659 61.248 30.3379 61.632C30.6179 62.016 30.7579 62.468 30.7579 62.988C30.7579 63.26 30.7219 63.532 30.6499 63.804C30.5779 64.068 30.4379 64.352 30.2299 64.656C30.0299 64.952 29.7299 65.284 29.3299 65.652L26.8339 67.956L26.4379 67.116H30.9859V69H24.4459ZM34.4855 69.168C33.9015 69.168 33.3175 69.096 32.7335 68.952C32.1575 68.808 31.6535 68.604 31.2215 68.34L32.0855 66.552C32.4215 66.776 32.7935 66.948 33.2015 67.068C33.6175 67.188 34.0215 67.248 34.4135 67.248C34.8215 67.248 35.1455 67.172 35.3855 67.02C35.6255 66.868 35.7455 66.652 35.7455 66.372C35.7455 66.124 35.6455 65.928 35.4455 65.784C35.2455 65.632 34.9175 65.556 34.4615 65.556H33.4655V64.056L35.7215 61.62L35.9495 62.436H31.6535V60.6H37.7255V62.088L35.4695 64.524L34.3055 63.864H34.9535C36.0015 63.864 36.7935 64.1 37.3295 64.572C37.8735 65.036 38.1455 65.636 38.1455 66.372C38.1455 66.852 38.0135 67.304 37.7495 67.728C37.4935 68.152 37.0975 68.5 36.5615 68.772C36.0255 69.036 35.3335 69.168 34.4855 69.168Z" fill="white"/>
</svg>
