<svg width="48" height="59" viewBox="0 0 48 59" fill="none" xmlns="http://www.w3.org/2000/svg">
<path d="M4.36364 52.8125H13.3091C12.6909 52.2281 12.1182 51.5922 11.5909 50.9047C11.0636 50.2172 10.6 49.4781 10.2 48.6875H4.36364V52.8125ZM24 52.8125C27.0182 52.8125 29.5909 51.807 31.7182 49.7961C33.8455 47.7852 34.9091 45.3531 34.9091 42.5C34.9091 39.6469 33.8455 37.2148 31.7182 35.2039C29.5909 33.193 27.0182 32.1875 24 32.1875C20.9818 32.1875 18.4091 33.193 16.2818 35.2039C14.1545 37.2148 13.0909 39.6469 13.0909 42.5C13.0909 45.3531 14.1545 47.7852 16.2818 49.7961C18.4091 51.807 20.9818 52.8125 24 52.8125ZM37.8 36.3125H43.6364V32.1875H34.6909C35.3091 32.7719 35.8818 33.4078 36.4091 34.0953C36.9364 34.7828 37.4 35.5219 37.8 36.3125ZM0 59V42.5H4.36364V44.5625H8.89091C8.81818 44.2187 8.77273 43.8836 8.75455 43.557C8.73636 43.2305 8.72727 42.8781 8.72727 42.5C8.72727 38.4781 10.2091 35.0664 13.1727 32.2648C16.1364 29.4633 19.7455 28.0625 24 28.0625H43.6364V26H48V42.5H43.6364V40.4375H39.1091C39.1818 40.7813 39.2273 41.1164 39.2455 41.443C39.2636 41.7695 39.2727 42.1219 39.2727 42.5C39.2727 46.5219 37.7909 49.9336 34.8273 52.7352C31.8636 55.5367 28.2545 56.9375 24 56.9375H4.36364V59H0ZM24 48.6875C22.8 48.6875 21.7727 48.2836 20.9182 47.4758C20.0636 46.668 19.6364 45.6969 19.6364 44.5625C19.6364 43.7719 19.8091 42.9898 20.1545 42.2164C20.5 41.443 21.1636 40.3344 22.1455 38.8906L24 36.3125L25.8545 38.8906C26.8364 40.3344 27.5 41.443 27.8455 42.2164C28.1909 42.9898 28.3636 43.7719 28.3636 44.5625C28.3636 45.6969 27.9364 46.668 27.0818 47.4758C26.2273 48.2836 25.2 48.6875 24 48.6875Z" fill="white"/>
<path d="M18.0724 19V16.4716L23.3778 11.8267C23.7756 11.4669 24.1141 11.1378 24.3935 10.8395C24.6728 10.5365 24.8859 10.2334 25.0327 9.9304C25.1795 9.62263 25.2528 9.28883 25.2528 8.92898C25.2528 8.52652 25.1652 8.18324 24.9901 7.89915C24.8149 7.61032 24.5734 7.38778 24.2656 7.23153C23.9579 7.07528 23.6051 6.99716 23.2074 6.99716C22.8049 6.99716 22.4522 7.08002 22.1491 7.24574C21.8461 7.40672 21.6094 7.6411 21.4389 7.94886C21.2732 8.25663 21.1903 8.63068 21.1903 9.07102H17.8594C17.8594 8.08144 18.0819 7.2268 18.527 6.5071C18.9721 5.78741 19.5971 5.23343 20.402 4.84517C21.2116 4.45218 22.1515 4.25568 23.2216 4.25568C24.3248 4.25568 25.2836 4.44034 26.098 4.80966C26.9124 5.17898 27.5421 5.69508 27.9872 6.35795C28.437 7.0161 28.6619 7.78078 28.6619 8.65199C28.6619 9.20597 28.5507 9.75521 28.3281 10.2997C28.1056 10.8442 27.7055 11.4455 27.1278 12.1037C26.5549 12.7618 25.7405 13.5502 24.6847 14.4688L22.9446 16.0739V16.1662H28.8395V19H18.0724Z" fill="white"/>
</svg>
