<svg width="48" height="59" viewBox="0 0 48 59" fill="none" xmlns="http://www.w3.org/2000/svg">
<path d="M4.36364 52.8125H13.3091C12.6909 52.2281 12.1182 51.5922 11.5909 50.9047C11.0636 50.2172 10.6 49.4781 10.2 48.6875H4.36364V52.8125ZM24 52.8125C27.0182 52.8125 29.5909 51.807 31.7182 49.7961C33.8455 47.7852 34.9091 45.3531 34.9091 42.5C34.9091 39.6469 33.8455 37.2148 31.7182 35.2039C29.5909 33.193 27.0182 32.1875 24 32.1875C20.9818 32.1875 18.4091 33.193 16.2818 35.2039C14.1545 37.2148 13.0909 39.6469 13.0909 42.5C13.0909 45.3531 14.1545 47.7852 16.2818 49.7961C18.4091 51.807 20.9818 52.8125 24 52.8125ZM37.8 36.3125H43.6364V32.1875H34.6909C35.3091 32.7719 35.8818 33.4078 36.4091 34.0953C36.9364 34.7828 37.4 35.5219 37.8 36.3125ZM0 59V42.5H4.36364V44.5625H8.89091C8.81818 44.2187 8.77273 43.8836 8.75455 43.557C8.73636 43.2305 8.72727 42.8781 8.72727 42.5C8.72727 38.4781 10.2091 35.0664 13.1727 32.2648C16.1364 29.4633 19.7455 28.0625 24 28.0625H43.6364V26H48V42.5H43.6364V40.4375H39.1091C39.1818 40.7813 39.2273 41.1164 39.2455 41.443C39.2636 41.7695 39.2727 42.1219 39.2727 42.5C39.2727 46.5219 37.7909 49.9336 34.8273 52.7352C31.8636 55.5367 28.2545 56.9375 24 56.9375H4.36364V59H0ZM24 48.6875C22.8 48.6875 21.7727 48.2836 20.9182 47.4758C20.0636 46.668 19.6364 45.6969 19.6364 44.5625C19.6364 43.7719 19.8091 42.9898 20.1545 42.2164C20.5 41.443 21.1636 40.3344 22.1455 38.8906L24 36.3125L25.8545 38.8906C26.8364 40.3344 27.5 41.443 27.8455 42.2164C28.1909 42.9898 28.3636 43.7719 28.3636 44.5625C28.3636 45.6969 27.9364 46.668 27.0818 47.4758C26.2273 48.2836 25.2 48.6875 24 48.6875Z" fill="white"/>
<path d="M23.296 18.168C22.512 18.168 21.828 18.012 21.244 17.7C20.668 17.388 20.216 16.924 19.888 16.308C19.568 15.692 19.408 14.932 19.408 14.028C19.408 13.052 19.596 12.224 19.972 11.544C20.356 10.856 20.88 10.332 21.544 9.972C22.216 9.612 22.992 9.432 23.872 9.432C24.344 9.432 24.796 9.488 25.228 9.6C25.668 9.704 26.04 9.852 26.344 10.044L25.48 11.748C25.24 11.58 24.988 11.468 24.724 11.412C24.468 11.348 24.204 11.316 23.932 11.316C23.284 11.316 22.764 11.512 22.372 11.904C21.988 12.296 21.796 12.868 21.796 13.62C21.796 13.756 21.796 13.9 21.796 14.052C21.804 14.196 21.82 14.344 21.844 14.496L21.244 14.004C21.404 13.708 21.596 13.46 21.82 13.26C22.052 13.06 22.324 12.908 22.636 12.804C22.956 12.7 23.312 12.648 23.704 12.648C24.232 12.648 24.712 12.76 25.144 12.984C25.584 13.2 25.936 13.508 26.2 13.908C26.464 14.3 26.596 14.764 26.596 15.3C26.596 15.884 26.448 16.392 26.152 16.824C25.856 17.248 25.46 17.58 24.964 17.82C24.468 18.052 23.912 18.168 23.296 18.168ZM23.152 16.476C23.376 16.476 23.572 16.432 23.74 16.344C23.916 16.256 24.052 16.132 24.148 15.972C24.244 15.812 24.292 15.624 24.292 15.408C24.292 15.088 24.184 14.832 23.968 14.64C23.76 14.448 23.484 14.352 23.14 14.352C22.908 14.352 22.704 14.396 22.528 14.484C22.36 14.572 22.224 14.696 22.12 14.856C22.024 15.016 21.976 15.204 21.976 15.42C21.976 15.628 22.024 15.812 22.12 15.972C22.216 16.124 22.352 16.248 22.528 16.344C22.704 16.432 22.912 16.476 23.152 16.476Z" fill="white"/>
</svg>
