<svg width="48" height="76" viewBox="0 0 48 76" fill="none" xmlns="http://www.w3.org/2000/svg">
<path d="M4.36364 52.8125H13.3091C12.6909 52.2281 12.1182 51.5922 11.5909 50.9047C11.0636 50.2172 10.6 49.4781 10.2 48.6875H4.36364V52.8125ZM24 52.8125C27.0182 52.8125 29.5909 51.807 31.7182 49.7961C33.8455 47.7852 34.9091 45.3531 34.9091 42.5C34.9091 39.6469 33.8455 37.2148 31.7182 35.2039C29.5909 33.193 27.0182 32.1875 24 32.1875C20.9818 32.1875 18.4091 33.193 16.2818 35.2039C14.1545 37.2148 13.0909 39.6469 13.0909 42.5C13.0909 45.3531 14.1545 47.7852 16.2818 49.7961C18.4091 51.807 20.9818 52.8125 24 52.8125ZM37.8 36.3125H43.6364V32.1875H34.6909C35.3091 32.7719 35.8818 33.4078 36.4091 34.0953C36.9364 34.7828 37.4 35.5219 37.8 36.3125ZM0 59V42.5H4.36364V44.5625H8.89091C8.81818 44.2187 8.77273 43.8836 8.75455 43.557C8.73636 43.2305 8.72727 42.8781 8.72727 42.5C8.72727 38.4781 10.2091 35.0664 13.1727 32.2648C16.1364 29.4633 19.7455 28.0625 24 28.0625H43.6364V26H48V42.5H43.6364V40.4375H39.1091C39.1818 40.7813 39.2273 41.1164 39.2455 41.443C39.2636 41.7695 39.2727 42.1219 39.2727 42.5C39.2727 46.5219 37.7909 49.9336 34.8273 52.7352C31.8636 55.5367 28.2545 56.9375 24 56.9375H4.36364V59H0ZM24 48.6875C22.8 48.6875 21.7727 48.2836 20.9182 47.4758C20.0636 46.668 19.6364 45.6969 19.6364 44.5625C19.6364 43.7719 19.8091 42.9898 20.1545 42.2164C20.5 41.443 21.1636 40.3344 22.1455 38.8906L24 36.3125L25.8545 38.8906C26.8364 40.3344 27.5 41.443 27.8455 42.2164C28.1909 42.9898 28.3636 43.7719 28.3636 44.5625C28.3636 45.6969 27.9364 46.668 27.0818 47.4758C26.2273 48.2836 25.2 48.6875 24 48.6875Z" fill="white"/>
<path d="M25.7983 4.45459V19H22.2898V7.73584H22.2045L18.9517 9.72447V6.6847L22.5384 4.45459H25.7983Z" fill="white"/>
<path d="M9.84 73V64.6H14.136C15.24 64.6 16.064 64.804 16.608 65.212C17.152 65.612 17.424 66.14 17.424 66.796C17.424 67.228 17.308 67.608 17.076 67.936C16.852 68.256 16.532 68.512 16.116 68.704C15.708 68.888 15.22 68.98 14.652 68.98L14.892 68.404C15.484 68.404 16 68.496 16.44 68.68C16.88 68.856 17.22 69.116 17.46 69.46C17.708 69.796 17.832 70.208 17.832 70.696C17.832 71.424 17.536 71.992 16.944 72.4C16.36 72.8 15.504 73 14.376 73H9.84ZM12.192 71.284H14.184C14.592 71.284 14.9 71.216 15.108 71.08C15.324 70.936 15.432 70.72 15.432 70.432C15.432 70.144 15.324 69.932 15.108 69.796C14.9 69.652 14.592 69.58 14.184 69.58H12.024V67.936H13.824C14.224 67.936 14.524 67.868 14.724 67.732C14.924 67.596 15.024 67.392 15.024 67.12C15.024 66.848 14.924 66.648 14.724 66.52C14.524 66.384 14.224 66.316 13.824 66.316H12.192V71.284ZM19.8547 73V65.452L20.8747 66.436H18.2947V64.6H22.2307V73H19.8547ZM23.4459 73V71.512L26.5899 68.572C26.8139 68.364 26.9779 68.18 27.0819 68.02C27.1939 67.86 27.2659 67.716 27.2979 67.588C27.3379 67.452 27.3579 67.328 27.3579 67.216C27.3579 66.944 27.2659 66.732 27.0819 66.58C26.9059 66.428 26.6379 66.352 26.2779 66.352C25.9739 66.352 25.6899 66.42 25.4259 66.556C25.1619 66.692 24.9459 66.896 24.7779 67.168L23.0139 66.184C23.3259 65.656 23.7779 65.232 24.3699 64.912C24.9619 64.592 25.6699 64.432 26.4939 64.432C27.1419 64.432 27.7099 64.536 28.1979 64.744C28.6859 64.952 29.0659 65.248 29.3379 65.632C29.6179 66.016 29.7579 66.468 29.7579 66.988C29.7579 67.26 29.7219 67.532 29.6499 67.804C29.5779 68.068 29.4379 68.352 29.2299 68.656C29.0299 68.952 28.7299 69.284 28.3299 69.652L25.8339 71.956L25.4379 71.116H29.9859V73H23.4459ZM33.4855 73.168C32.9015 73.168 32.3175 73.096 31.7335 72.952C31.1575 72.808 30.6535 72.604 30.2215 72.34L31.0855 70.552C31.4215 70.776 31.7935 70.948 32.2015 71.068C32.6175 71.188 33.0215 71.248 33.4135 71.248C33.8215 71.248 34.1455 71.172 34.3855 71.02C34.6255 70.868 34.7455 70.652 34.7455 70.372C34.7455 70.124 34.6455 69.928 34.4455 69.784C34.2455 69.632 33.9175 69.556 33.4615 69.556H32.4655V68.056L34.7215 65.62L34.9495 66.436H30.6535V64.6H36.7255V66.088L34.4695 68.524L33.3055 67.864H33.9535C35.0015 67.864 35.7935 68.1 36.3295 68.572C36.8735 69.036 37.1455 69.636 37.1455 70.372C37.1455 70.852 37.0135 71.304 36.7495 71.728C36.4935 72.152 36.0975 72.5 35.5615 72.772C35.0255 73.036 34.3335 73.168 33.4855 73.168Z" fill="white"/>
</svg>
