<svg width="48" height="59" viewBox="0 0 48 59" fill="none" xmlns="http://www.w3.org/2000/svg">
<path d="M4.36364 52.8125H13.3091C12.6909 52.2281 12.1182 51.5922 11.5909 50.9047C11.0636 50.2172 10.6 49.4781 10.2 48.6875H4.36364V52.8125ZM24 52.8125C27.0182 52.8125 29.5909 51.807 31.7182 49.7961C33.8455 47.7852 34.9091 45.3531 34.9091 42.5C34.9091 39.6469 33.8455 37.2148 31.7182 35.2039C29.5909 33.193 27.0182 32.1875 24 32.1875C20.9818 32.1875 18.4091 33.193 16.2818 35.2039C14.1545 37.2148 13.0909 39.6469 13.0909 42.5C13.0909 45.3531 14.1545 47.7852 16.2818 49.7961C18.4091 51.807 20.9818 52.8125 24 52.8125ZM37.8 36.3125H43.6364V32.1875H34.6909C35.3091 32.7719 35.8818 33.4078 36.4091 34.0953C36.9364 34.7828 37.4 35.5219 37.8 36.3125ZM0 59V42.5H4.36364V44.5625H8.89091C8.81818 44.2187 8.77273 43.8836 8.75455 43.557C8.73636 43.2305 8.72727 42.8781 8.72727 42.5C8.72727 38.4781 10.2091 35.0664 13.1727 32.2648C16.1364 29.4633 19.7455 28.0625 24 28.0625H43.6364V26H48V42.5H43.6364V40.4375H39.1091C39.1818 40.7813 39.2273 41.1164 39.2455 41.443C39.2636 41.7695 39.2727 42.1219 39.2727 42.5C39.2727 46.5219 37.7909 49.9336 34.8273 52.7352C31.8636 55.5367 28.2545 56.9375 24 56.9375H4.36364V59H0ZM24 48.6875C22.8 48.6875 21.7727 48.2836 20.9182 47.4758C20.0636 46.668 19.6364 45.6969 19.6364 44.5625C19.6364 43.7719 19.8091 42.9898 20.1545 42.2164C20.5 41.443 21.1636 40.3344 22.1455 38.8906L24 36.3125L25.8545 38.8906C26.8364 40.3344 27.5 41.443 27.8455 42.2164C28.1909 42.9898 28.3636 43.7719 28.3636 44.5625C28.3636 45.6969 27.9364 46.668 27.0818 47.4758C26.2273 48.2836 25.2 48.6875 24 48.6875Z" fill="white"/>
<path d="M17.8949 16.5852V13.8438L23.8537 4.45455H26.2898V8.17614H24.8764L21.3892 13.7017V13.8153H30.0185V16.5852H17.8949ZM24.919 19V15.7472L24.9901 14.5469V4.45455H28.2784V19H24.919Z" fill="white"/>
</svg>
