<svg width="48" height="59" viewBox="0 0 48 59" fill="none" xmlns="http://www.w3.org/2000/svg">
<path d="M4.36364 52.8125H13.3091C12.6909 52.2281 12.1182 51.5922 11.5909 50.9047C11.0636 50.2172 10.6 49.4781 10.2 48.6875H4.36364V52.8125ZM24 52.8125C27.0182 52.8125 29.5909 51.807 31.7182 49.7961C33.8455 47.7852 34.9091 45.3531 34.9091 42.5C34.9091 39.6469 33.8455 37.2148 31.7182 35.2039C29.5909 33.193 27.0182 32.1875 24 32.1875C20.9818 32.1875 18.4091 33.193 16.2818 35.2039C14.1545 37.2148 13.0909 39.6469 13.0909 42.5C13.0909 45.3531 14.1545 47.7852 16.2818 49.7961C18.4091 51.807 20.9818 52.8125 24 52.8125ZM37.8 36.3125H43.6364V32.1875H34.6909C35.3091 32.7719 35.8818 33.4078 36.4091 34.0953C36.9364 34.7828 37.4 35.5219 37.8 36.3125ZM0 59V42.5H4.36364V44.5625H8.89091C8.81818 44.2187 8.77273 43.8836 8.75455 43.557C8.73636 43.2305 8.72727 42.8781 8.72727 42.5C8.72727 38.4781 10.2091 35.0664 13.1727 32.2648C16.1364 29.4633 19.7455 28.0625 24 28.0625H43.6364V26H48V42.5H43.6364V40.4375H39.1091C39.1818 40.7813 39.2273 41.1164 39.2455 41.443C39.2636 41.7695 39.2727 42.1219 39.2727 42.5C39.2727 46.5219 37.7909 49.9336 34.8273 52.7352C31.8636 55.5367 28.2545 56.9375 24 56.9375H4.36364V59H0ZM24 48.6875C22.8 48.6875 21.7727 48.2836 20.9182 47.4758C20.0636 46.668 19.6364 45.6969 19.6364 44.5625C19.6364 43.7719 19.8091 42.9898 20.1545 42.2164C20.5 41.443 21.1636 40.3344 22.1455 38.8906L24 36.3125L25.8545 38.8906C26.8364 40.3344 27.5 41.443 27.8455 42.2164C28.1909 42.9898 28.3636 43.7719 28.3636 44.5625C28.3636 45.6969 27.9364 46.668 27.0818 47.4758C26.2273 48.2836 25.2 48.6875 24 48.6875Z" fill="white"/>
<path d="M23.6051 19.1989C22.4972 19.1989 21.5147 19.0095 20.6577 18.6307C19.8054 18.2472 19.133 17.7192 18.6406 17.0469C18.1482 16.3745 17.8973 15.6004 17.8878 14.7244H21.4247C21.4389 15.0417 21.5407 15.3234 21.7301 15.5696C21.9195 15.8111 22.1776 16.0005 22.5043 16.1378C22.831 16.2751 23.2027 16.3438 23.6193 16.3438C24.036 16.3438 24.4029 16.2704 24.7202 16.1236C25.0421 15.9721 25.2931 15.7661 25.473 15.5057C25.6529 15.2405 25.7405 14.9375 25.7358 14.5966C25.7405 14.2557 25.6435 13.9527 25.4446 13.6875C25.2457 13.4223 24.964 13.2164 24.5994 13.0696C24.2396 12.9228 23.8134 12.8494 23.321 12.8494H21.9077V10.3494H23.321C23.7519 10.3494 24.1307 10.2784 24.4574 10.1364C24.7888 9.99432 25.0469 9.79545 25.2315 9.53977C25.4162 9.27936 25.5062 8.98106 25.5014 8.64489C25.5062 8.31818 25.428 8.03172 25.267 7.78551C25.1108 7.53456 24.8906 7.34044 24.6065 7.20312C24.3272 7.06581 24.0028 6.99716 23.6335 6.99716C23.2453 6.99716 22.8925 7.06581 22.5753 7.20312C22.2628 7.34044 22.0142 7.53456 21.8295 7.78551C21.6449 8.03646 21.5478 8.32765 21.5384 8.65909H18.179C18.1884 7.79261 18.4299 7.0303 18.9034 6.37216C19.3769 5.70928 20.0208 5.19081 20.8352 4.81676C21.6544 4.44271 22.5871 4.25568 23.6335 4.25568C24.6752 4.25568 25.5914 4.43797 26.3821 4.80256C27.1728 5.16714 27.7884 5.6643 28.2287 6.29403C28.669 6.91903 28.8892 7.62689 28.8892 8.41761C28.8939 9.23674 28.6264 9.91146 28.0866 10.4418C27.5516 10.9721 26.8627 11.2988 26.0199 11.4219V11.5355C27.1468 11.6681 27.9967 12.0327 28.5696 12.6293C29.1473 13.2259 29.4337 13.9716 29.429 14.8665C29.429 15.7093 29.1804 16.4574 28.6832 17.1108C28.1908 17.7595 27.5043 18.2708 26.6236 18.6449C25.7476 19.0142 24.7415 19.1989 23.6051 19.1989Z" fill="white"/>
</svg>
