<svg width="5142" height="4356" viewBox="0 0 5142 4356" fill="none" xmlns="http://www.w3.org/2000/svg">
<path d="M748.246 2216.52C748.246 2097.39 844.819 2000.82 963.949 2000.82H4178.28C4297.41 2000.82 4393.99 2097.39 4393.99 2216.52V2216.52C4393.99 2335.65 4297.41 2432.22 4178.28 2432.22H963.949C844.819 2432.22 748.246 2335.65 748.246 2216.52V2216.52Z" fill="white"/>
<path d="M748.246 2857.78C748.246 2738.65 844.819 2642.08 963.949 2642.08H4178.28C4297.41 2642.08 4393.99 2738.65 4393.99 2857.78V2857.78C4393.99 2976.91 4297.41 3073.48 4178.28 3073.48H963.949C844.819 3073.48 748.246 2976.91 748.246 2857.78V2857.78Z" fill="white"/>
<rect x="0.233398" y="1413.67" width="535.966" height="2942.33" fill="white"/>
<rect x="4606.03" y="1413.67" width="535.966" height="2942.33" fill="white"/>
<rect x="0.233398" y="1790.97" width="535.966" height="5141.77" transform="rotate(-90 0.233398 1790.97)" fill="white"/>
<path d="M536.2 3358.65C754.997 3357.7 695.744 3565.91 914.506 3569.79C1141.48 3573.83 1089.84 3358.61 1316.85 3358.65C1543.77 3358.69 1530.54 3576.93 1757.34 3569.79C1970.05 3563.1 1914.54 3364.45 2127.28 3358.65" stroke="white" stroke-width="300"/>
<path d="M3751.27 3358.69C3974.59 3357.74 3969.25 3559.86 4192.54 3563.75C4424.21 3567.78 4377.25 3358.65 4608.96 3358.69" stroke="white" stroke-width="300"/>
<path d="M2127.28 3358.65C2350.61 3357.7 2290.13 3566.11 2513.42 3570C2745.09 3574.03 2692.38 3358.61 2924.09 3358.65C3155.71 3358.69 3142.2 3577.14 3373.69 3570C3590.81 3563.3 3534.15 3364.46 3751.3 3358.65" stroke="white" stroke-width="300"/>
<path d="M533.275 3855.13C752.072 3854.19 692.819 4062.39 911.581 4066.27C1138.55 4070.31 1086.91 3855.09 1313.92 3855.13C1540.84 3855.18 1527.61 4073.41 1754.41 4066.27C1967.12 4059.58 1911.61 3860.93 2124.36 3855.14" stroke="white" stroke-width="300"/>
<path d="M3748.34 3855.17C3971.67 3854.22 3966.33 4056.34 4189.62 4060.23C4421.29 4064.27 4374.32 3855.13 4606.03 3855.17" stroke="white" stroke-width="300"/>
<path d="M2124.36 3855.13C2347.68 3854.18 2287.2 4062.59 2510.49 4066.48C2742.16 4070.51 2689.45 3855.09 2921.16 3855.13C3152.78 3855.18 3139.27 4073.62 3370.77 4066.48C3587.88 4059.78 3531.23 3860.94 3748.37 3855.14" stroke="white" stroke-width="300"/>
<path d="M2683.35 217.455V872H2505.65V381.091H2501.81L2358.63 466.744V315.892L2519.71 217.455H2683.35Z" fill="white"/>
</svg>
