<svg width="5142" height="4369" viewBox="0 0 5142 4369" fill="none" xmlns="http://www.w3.org/2000/svg">
<path d="M748.246 2229.52C748.246 2110.39 844.819 2013.82 963.949 2013.82H4178.28C4297.41 2013.82 4393.99 2110.39 4393.99 2229.52V2229.52C4393.99 2348.65 4297.41 2445.22 4178.28 2445.22H963.949C844.819 2445.22 748.246 2348.65 748.246 2229.52V2229.52Z" fill="white"/>
<path d="M748.246 2870.78C748.246 2751.65 844.819 2655.08 963.949 2655.08H4178.28C4297.41 2655.08 4393.99 2751.65 4393.99 2870.78V2870.78C4393.99 2989.91 4297.41 3086.48 4178.28 3086.48H963.949C844.819 3086.48 748.246 2989.91 748.246 2870.78V2870.78Z" fill="white"/>
<rect x="0.233398" y="1426.67" width="535.966" height="2942.33" fill="white"/>
<rect x="4606.03" y="1426.67" width="535.966" height="2942.33" fill="white"/>
<rect x="0.233398" y="1803.97" width="535.966" height="5141.77" transform="rotate(-90 0.233398 1803.97)" fill="white"/>
<path d="M536.2 3371.65C754.997 3370.7 695.744 3578.91 914.506 3582.79C1141.48 3586.83 1089.84 3371.61 1316.85 3371.65C1543.77 3371.69 1530.54 3589.93 1757.34 3582.79C1970.05 3576.1 1914.54 3377.45 2127.28 3371.65" stroke="white" stroke-width="300"/>
<path d="M3751.27 3371.69C3974.59 3370.74 3969.25 3572.86 4192.54 3576.75C4424.21 3580.78 4377.25 3371.65 4608.96 3371.69" stroke="white" stroke-width="300"/>
<path d="M2127.28 3371.65C2350.61 3370.7 2290.13 3579.11 2513.42 3583C2745.09 3587.03 2692.38 3371.61 2924.09 3371.65C3155.71 3371.69 3142.2 3590.14 3373.69 3583C3590.81 3576.3 3534.15 3377.46 3751.3 3371.65" stroke="white" stroke-width="300"/>
<path d="M533.275 3868.13C752.072 3867.19 692.819 4075.39 911.581 4079.27C1138.55 4083.31 1086.91 3868.09 1313.92 3868.13C1540.84 3868.18 1527.61 4086.41 1754.41 4079.27C1967.12 4072.58 1911.61 3873.93 2124.36 3868.14" stroke="white" stroke-width="300"/>
<path d="M3748.34 3868.17C3971.67 3867.22 3966.33 4069.34 4189.62 4073.23C4421.29 4077.27 4374.32 3868.13 4606.03 3868.17" stroke="white" stroke-width="300"/>
<path d="M2124.36 3868.13C2347.68 3867.18 2287.2 4075.59 2510.49 4079.48C2742.16 4083.51 2689.45 3868.09 2921.16 3868.13C3152.78 3868.18 3139.27 4086.62 3370.77 4079.48C3587.88 4072.78 3531.23 3873.94 3748.37 3868.14" stroke="white" stroke-width="300"/>
<path d="M2590.15 880.949C2538.59 880.949 2492.78 872.107 2452.72 854.422C2412.88 836.524 2381.55 811.915 2358.76 780.594C2335.96 749.273 2324.45 713.264 2324.24 672.568H2503.22C2503.43 685.139 2507.26 696.432 2514.72 706.446C2522.39 716.247 2532.83 723.918 2546.04 729.457C2559.25 734.997 2574.38 737.767 2591.43 737.767C2607.83 737.767 2622.32 734.891 2634.89 729.138C2647.46 723.172 2657.26 714.969 2664.3 704.528C2671.33 694.088 2674.74 682.156 2674.52 668.733C2674.74 655.523 2670.69 643.804 2662.38 633.577C2654.28 623.349 2642.88 615.359 2628.18 609.607C2613.48 603.854 2596.54 600.977 2577.36 600.977H2510.89V478.25H2577.36C2595.05 478.25 2610.6 475.374 2624.03 469.621C2637.66 463.868 2648.21 455.878 2655.67 445.651C2663.34 435.423 2667.07 423.705 2666.85 410.494C2667.07 397.71 2663.98 386.418 2657.58 376.616C2651.19 366.815 2642.24 359.145 2630.74 353.605C2619.44 348.065 2606.34 345.295 2591.43 345.295C2575.23 345.295 2560.74 348.172 2547.96 353.925C2535.39 359.678 2525.48 367.668 2518.24 377.895C2510.99 388.122 2507.26 399.841 2507.05 413.051H2337.02C2337.24 372.994 2348.21 337.625 2369.94 306.943C2391.89 276.261 2421.93 252.185 2460.07 234.713C2498.21 217.241 2541.99 208.506 2591.43 208.506C2639.79 208.506 2682.51 216.709 2719.59 233.115C2756.87 249.521 2785.96 272.107 2806.84 300.871C2827.93 329.422 2838.37 362.128 2838.16 398.989C2838.59 435.636 2826.01 465.679 2800.45 489.116C2775.09 512.554 2742.92 526.403 2703.93 530.665V535.778C2756.77 541.531 2796.5 557.724 2823.14 584.358C2849.77 610.778 2862.88 644.017 2862.45 684.074C2862.66 722.426 2851.16 756.411 2827.93 786.027C2804.92 815.643 2772.85 838.868 2731.73 855.7C2690.82 872.533 2643.63 880.949 2590.15 880.949Z" fill="white"/>
</svg>
