<svg width="5142" height="4369" viewBox="0 0 5142 4369" fill="none" xmlns="http://www.w3.org/2000/svg">
<path d="M748.246 2229.52C748.246 2110.39 844.819 2013.82 963.949 2013.82H4178.28C4297.41 2013.82 4393.99 2110.39 4393.99 2229.52V2229.52C4393.99 2348.65 4297.41 2445.22 4178.28 2445.22H963.949C844.819 2445.22 748.246 2348.65 748.246 2229.52V2229.52Z" fill="white"/>
<path d="M748.246 2870.78C748.246 2751.65 844.819 2655.08 963.949 2655.08H4178.28C4297.41 2655.08 4393.99 2751.65 4393.99 2870.78V2870.78C4393.99 2989.91 4297.41 3086.48 4178.28 3086.48H963.949C844.819 3086.48 748.246 2989.91 748.246 2870.78V2870.78Z" fill="white"/>
<rect x="0.233398" y="1426.67" width="535.966" height="2942.33" fill="white"/>
<rect x="4606.03" y="1426.67" width="535.966" height="2942.33" fill="white"/>
<rect x="0.233398" y="1803.97" width="535.966" height="5141.77" transform="rotate(-90 0.233398 1803.97)" fill="white"/>
<path d="M536.2 3371.65C754.997 3370.7 695.744 3578.91 914.506 3582.79C1141.48 3586.83 1089.84 3371.61 1316.85 3371.65C1543.77 3371.69 1530.54 3589.93 1757.34 3582.79C1970.05 3576.1 1914.54 3377.45 2127.28 3371.65" stroke="white" stroke-width="300"/>
<path d="M3751.27 3371.69C3974.59 3370.74 3969.25 3572.86 4192.54 3576.75C4424.21 3580.78 4377.25 3371.65 4608.96 3371.69" stroke="white" stroke-width="300"/>
<path d="M2127.28 3371.65C2350.61 3370.7 2290.13 3579.11 2513.42 3583C2745.09 3587.03 2692.38 3371.61 2924.09 3371.65C3155.71 3371.69 3142.2 3590.14 3373.69 3583C3590.81 3576.3 3534.15 3377.46 3751.3 3371.65" stroke="white" stroke-width="300"/>
<path d="M533.275 3868.13C752.072 3867.19 692.819 4075.39 911.581 4079.27C1138.55 4083.31 1086.91 3868.09 1313.92 3868.13C1540.84 3868.18 1527.61 4086.41 1754.41 4079.27C1967.12 4072.58 1911.61 3873.93 2124.36 3868.14" stroke="white" stroke-width="300"/>
<path d="M3748.34 3868.17C3971.67 3867.22 3966.33 4069.34 4189.62 4073.23C4421.29 4077.27 4374.32 3868.13 4606.03 3868.17" stroke="white" stroke-width="300"/>
<path d="M2124.36 3868.13C2347.68 3867.18 2287.2 4075.59 2510.49 4079.48C2742.16 4083.51 2689.45 3868.09 2921.16 3868.13C3152.78 3868.18 3139.27 4086.62 3370.77 4079.48C3587.88 4072.78 3531.23 3873.94 3748.37 3868.14" stroke="white" stroke-width="300"/>
<path d="M2328.07 769.727V631.659L2591.43 217.455H2716.71V401.545H2645.12L2503.22 626.545V631.659H2891.85V769.727H2328.07ZM2646.4 872V727.54L2650.23 667.455V217.455H2816.43V872H2646.4Z" fill="white"/>
</svg>
